<svg xmlns="http://www.w3.org/2000/svg" width="163" height="73" fill="none"><path fill="#fff" d="M4.8 65.358h15.581V16.24q0-2.212.152-4.475l-12.95 11.01q-.507.403-1.012.604-.507.15-.962.15-.758 0-1.365-.3-.608-.353-.911-.805L.5 18.552 22.05 0h7.336v65.358h14.266v6.838H4.8zM81.854 28.054q4.351 0 8.246 1.458 3.895 1.408 6.83 4.173 2.934 2.715 4.654 6.736 1.72 3.973 1.72 9.1 0 4.978-1.822 9.251a22.4 22.4 0 0 1-5.109 7.44q-3.237 3.169-7.841 4.978Q83.927 73 78.414 73q-5.463 0-9.915-1.71-4.401-1.759-7.538-4.926-3.136-3.218-4.856-7.743-1.67-4.575-1.67-10.206 0-4.725 2.125-10.055 2.125-5.329 6.728-11.463L81.652 2.313q.708-.905 1.973-1.509Q84.89.151 86.508.151h7.993L69.36 31.774q2.58-1.76 5.716-2.715 3.136-1.005 6.78-1.005m-18.718 21.92q0 3.469 1.012 6.335t2.934 4.927q1.973 2.06 4.756 3.217 2.833 1.106 6.424 1.106 3.643 0 6.577-1.156 2.934-1.157 5.008-3.218 2.125-2.061 3.238-4.876 1.163-2.816 1.163-6.134 0-3.52-1.113-6.335-1.113-2.866-3.136-4.826-2.024-2.01-4.857-3.067-2.832-1.056-6.222-1.056-3.642 0-6.576 1.257-2.935 1.206-5.009 3.318a14.6 14.6 0 0 0-3.136 4.827 15.5 15.5 0 0 0-1.063 5.68M162.5.15v4.023q0 1.71-.405 2.815-.354 1.107-.759 1.86l-29.998 60.18a6.9 6.9 0 0 1-1.822 2.263q-1.163.905-3.136.905h-6.425l30.454-59.426q.658-1.257 1.316-2.313.708-1.056 1.568-2.01h-37.84q-.86 0-1.569-.654-.657-.704-.657-1.559V.151z"/></svg>