<svg xmlns="http://www.w3.org/2000/svg" width="90" height="54" fill="none"><path fill="#8A7B60" d="M2.586 26.79h6.035V10.833q0-1.172.065-2.453l-3.557 2.974q-.345.282-.69.413a2.2 2.2 0 0 1-.667.108q-.561 0-1.013-.239-.432-.26-.647-.542L0 8.27 9.785 0h5.517v26.79h5.173v4.863H2.586zM36.987 11.615q1.703 0 3.362.564a8.6 8.6 0 0 1 2.975 1.737q1.314 1.172 2.112 2.974.819 1.78.819 4.212 0 2.214-.82 4.211a10.5 10.5 0 0 1-2.327 3.474q-1.486 1.476-3.6 2.345-2.11.867-4.676.868-2.63 0-4.72-.825-2.091-.846-3.556-2.345-1.445-1.497-2.22-3.582-.754-2.085-.754-4.58 0-2.367.905-4.711.905-2.346 2.672-4.776l7.07-9.618Q34.702.912 35.65.478q.948-.456 2.155-.456h5.949l-9.311 11.202q-.216.239-.431.5-.195.238-.388.477a9.4 9.4 0 0 1 1.573-.434q.84-.152 1.79-.152m-6.983 9.964q0 1.173.28 2.106.281.934.862 1.607.582.672 1.466 1.042.885.347 2.09.347 1.035 0 1.919-.39a4.7 4.7 0 0 0 1.551-1.064 5.2 5.2 0 0 0 1.013-1.607 5.2 5.2 0 0 0 .388-2.019q0-1.215-.366-2.17a4.3 4.3 0 0 0-.991-1.607 4.3 4.3 0 0 0-1.574-.999q-.905-.348-2.026-.347a4.6 4.6 0 0 0-1.853.369 4.1 4.1 0 0 0-1.466 1.02 4.9 4.9 0 0 0-.948 1.607q-.345.933-.345 2.105M71 .022v2.822q0 1.194-.259 1.932-.258.738-.495 1.26l-10.97 23.402a4.2 4.2 0 0 1-1.272 1.585q-.84.63-2.22.63h-4.87L62.12 9.01q.453-.934.97-1.672.54-.738 1.164-1.411H50.44q-.302 0-.582-.109a2.1 2.1 0 0 1-.474-.325 2.2 2.2 0 0 1-.323-.478 1.35 1.35 0 0 1-.13-.565V.022z"/><path fill="#0A3B93" d="M5.605 53.92H4.298v-4.8H2.784l-.068.535q-.263 2.037-.465 2.858-.2.818-.58 1.152Q1.294 54 .626 54 .27 54 0 53.912V52.9q.246.08.461.08a.41.41 0 0 0 .355-.192q.132-.195.246-.718.119-.525.309-1.718.195-1.195.33-2.26h3.904zM10.728 53.92H7.166v-5.828h3.562v1.012h-2.25v1.28h2.094v1.013H8.478V52.9h2.25zM14.409 53.92h-1.312v-4.8h-1.68v-1.028h4.67v1.028H14.41zM23.783 53.92h-1.307v-2.515h-2.45v2.515h-1.311v-5.828h1.311v2.284h2.45v-2.284h1.307zM29.134 53.92l-.448-1.387H26.43l-.448 1.387H24.57l2.183-5.852h1.603l2.191 5.852zm-.761-2.424-.703-2.133a6 6 0 0 1-.11-.39q-.14.51-.799 2.523zM35.882 52.892h1.92v-4.8h1.307v5.828h-7.78v-5.828h1.312v4.8h1.92v-4.8h1.32zM44.232 53.92H40.67v-5.828h3.562v1.012h-2.25v1.28h2.094v1.013h-2.094V52.9h2.25zM49.436 48.092v1.02h-2.598v4.808h-1.311v-5.828zM55.92 50.998q0 1.447-.76 2.225-.762.777-2.184.777-1.42 0-2.183-.777-.76-.778-.761-2.233 0-1.455.761-2.22.765-.77 2.192-.77 1.425 0 2.178.773.758.774.758 2.225m-4.513 0q0 .977.393 1.471.395.495 1.176.495 1.57 0 1.57-1.966 0-1.97-1.561-1.97-.783 0-1.18.499-.398.495-.398 1.471M64.491 50.998q0 1.447-.761 2.225-.762.777-2.183.777-1.422 0-2.183-.777-.762-.778-.761-2.233 0-1.455.761-2.22.765-.77 2.191-.77t2.179.773q.757.774.757 2.225m-4.514 0q0 .977.394 1.471.393.495 1.176.495 1.57 0 1.57-1.966 0-1.97-1.562-1.97-.782 0-1.18.499-.398.495-.398 1.471M70.667 53.92H69.36v-4.8h-2.276v4.8h-1.311v-5.828h4.894zM76.459 52.098q0 .909-.643 1.368-.64.454-1.895.454h-1.693v-5.828h1.312v2.236h.423q1.189 0 1.84.467.656.462.656 1.303m-2.92.81h.343q.648 0 .948-.2.3-.203.3-.61t-.291-.582q-.287-.175-1.016-.175h-.283zm4.98 1.012h-1.307v-5.828h1.307zM82.466 53.92h-1.312v-4.8h-1.679v-1.028h4.67v1.028h-1.68zM88.587 53.92l-.448-1.387h-2.255l-.448 1.387h-1.413l2.182-5.852h1.604L90 53.92zm-.761-2.424-.703-2.133a6 6 0 0 1-.11-.39q-.14.51-.8 2.523z"/></svg>