<svg xmlns="http://www.w3.org/2000/svg" width="155" height="20" fill="none"><path fill="#fff" d="M77.19 17.025H72.03v-13.8h5.161zm-4.657-.505h4.153V3.73h-4.153zm11.84.505h-5.058v-13.8h10.567a6.34 6.34 0 0 1 4.248 1.198 4.65 4.65 0 0 1 1.492 3.848 4.9 4.9 0 0 1-1.098 3.402c-.925 1.06-2.463 1.607-4.572 1.626-.532.014-4.513 0-5.576 0zm-4.557-.505h4.052v-3.73h.254c.05 0 5.22.016 5.818 0 1.965-.017 3.377-.504 4.203-1.454a4.43 4.43 0 0 0 .967-3.066 4.18 4.18 0 0 0-1.31-3.461 5.87 5.87 0 0 0-3.925-1.081H79.82zm8.995-6.32h-4.977V6.442h5.01a2.13 2.13 0 0 1 1.916.733c.21.35.31.755.284 1.162a2.14 2.14 0 0 1-.236 1.091 2.18 2.18 0 0 1-1.997.766zm-4.473-.505h4.474c.826 0 1.338-.172 1.565-.527.125-.258.182-.544.165-.83.022-.3-.044-.6-.188-.865l-.006-.009c-.24-.353-.717-.517-1.503-.517h-4.507zm20.483 7.533c-4.527 0-7.228-1.124-8.258-3.436a6 6 0 0 1-.34-1.385l-.045-.29h5.386l.035.211c.041.215.133.418.266.591.213.257.923.689 3.278.689 2.83 0 2.83-.497 2.83-.764 0-.451-.327-.605-2.636-.851l-.438-.042c-.869-.081-1.968-.185-2.47-.228-4.235-.384-6.125-1.7-6.125-4.265 0-2.695 3.217-4.436 8.196-4.436 4.062 0 6.679 1.07 7.777 3.185.26.492.436 1.024.517 1.575l.036.283h-5.392l-.022-.228a.86.86 0 0 0-.218-.478c-.201-.27-.839-.716-2.817-.716-2.428 0-2.763.31-2.763.645 0 .446.767.605 3.226.868 1.025.083 2.674.253 3.238.321 3.55.385 5.134 1.669 5.134 4.163.001 2.092-1.456 4.588-8.395 4.588m-8.054-4.607q.076.5.259.972c.938 2.106 3.488 3.131 7.795 3.131 3.601 0 7.895-.706 7.895-4.084 0-2.21-1.401-3.306-4.687-3.662-.565-.068-2.203-.237-3.226-.321-2.621-.284-3.687-.436-3.687-1.37 0-.965 1.148-1.149 3.267-1.149 1.675 0 2.757.303 3.215.913.125.15.22.323.279.51h4.369a4.6 4.6 0 0 0-.413-1.12c-1.008-1.935-3.471-2.915-7.331-2.915-4.672 0-7.692 1.544-7.692 3.932 0 2.279 1.695 3.404 5.665 3.762.504.044 1.602.148 2.473.23l.442.042c2.144.226 3.09.367 3.09 1.352 0 1.06-1.223 1.268-3.335 1.268-1.954 0-3.188-.293-3.665-.871a1.9 1.9 0 0 1-.327-.62zm26.026 4.59c-5.262 0-8.166-2.128-8.166-5.993V3.224h5.094v7.993c0 1.325 1.186 2.085 3.254 2.085 1.976 0 3.203-.793 3.203-2.068v-8.01h5.041v8.416c.005 3.54-3.069 5.57-8.429 5.57zm-7.662-13.482v7.488c0 4.777 4.797 5.49 7.662 5.49 2.962 0 7.93-.658 7.93-5.066V3.729h-4.033v7.506c0 1.562-1.456 2.573-3.707 2.573-2.353 0-3.758-.968-3.758-2.59v-7.49zm37.448 13.296h-4.807v-6.23l-2.726 6.23h-4.193l-2.697-6.219v6.219h-4.824v-13.8h6.345l3.297 7.608 3.456-7.608h6.155zm-4.302-.505h3.798V3.73h-5.325l-3.793 8.346-3.615-8.346h-5.51V16.52h3.816V8.38l3.528 8.143h3.529l3.565-8.13zM6.983 3.477h-4.59v13.296h12.686v-3.54H6.983zm17.363-.303c-5.86 0-8.942 2.778-8.942 6.856 0 4.607 3.235 6.944 8.942 6.944 6.283 0 8.925-2.71 8.925-6.944 0-4.3-2.981-6.858-8.925-6.858zm-.017 3.455q.599-.002 1.194.07l-5.133 5.133a4.1 4.1 0 0 1-.347-1.747c0-2.086 1.05-3.458 4.286-3.458zm.017 6.945a10 10 0 0 1-1.15-.065l5.141-5.142c.234.54.346 1.126.328 1.714 0 2.03-.968 3.49-4.32 3.49zm18.022-1.815h4.725c-.07.328-.215.635-.424.897a4.9 4.9 0 0 1-3.489 1.084 4.45 4.45 0 0 1-3.505-1.168 3.76 3.76 0 0 1-.644-2.389c-.078-.886.17-1.77.694-2.489.66-.746 1.779-1.068 3.422-1.068a4.66 4.66 0 0 1 2.964.763c.276.218.482.513.593.846h4.382a4.5 4.5 0 0 0-.39-1.591c-1.05-2.135-3.49-3.405-7.638-3.405-3.608 0-6.03 1.1-7.367 2.761a6.62 6.62 0 0 0-1.288 4.15 7 7 0 0 0 1.258 4.27c1.322 1.713 3.676 2.556 6.505 2.556a8.13 8.13 0 0 0 5.284-1.49l.119 1.287h3.64V8.897h-8.841zM61.542 3.17c-5.86 0-8.943 2.778-8.943 6.856 0 4.607 3.235 6.944 8.943 6.944 6.284 0 8.926-2.71 8.926-6.944 0-4.297-2.981-6.855-8.926-6.855m-.016 3.455a10 10 0 0 1 1.162.067l-5.112 5.115a4.1 4.1 0 0 1-.336-1.723C57.236 8 58.29 6.627 61.526 6.627m.016 6.945a10 10 0 0 1-1.18-.069l5.158-5.16c.243.548.359 1.143.34 1.741.002 2.028-.962 3.489-4.318 3.489z"/></svg>