<svg xmlns="http://www.w3.org/2000/svg" width="170" height="416" fill="none"><g fill="#fff" clip-path="url(#a)"><path d="M174.395 356.769c1.647-1.069 1.784-3.777.306-6.049-1.479-2.272-4.012-3.247-5.659-2.178s-1.784 3.777-.306 6.049c1.479 2.272 4.012 3.247 5.659 2.178M92.184 316.366c1.611-.668 2.313-2.664 1.567-4.458s-2.657-2.707-4.268-2.038c-1.611.668-2.312 2.663-1.566 4.457s2.656 2.707 4.267 2.039M69.461 9.347c.766-2.631.073-5.145-1.546-5.615-1.62-.47-3.553 1.282-4.319 3.914-.765 2.631-.073 5.145 1.547 5.615s3.552-1.282 4.318-3.914M104.132 23.838c3.725 0 6.744-1.674 6.744-3.74s-3.019-3.74-6.744-3.74-6.743 1.674-6.743 3.74 3.019 3.74 6.743 3.74M121.178 23.983c2.093-3.16 2.148-6.806.124-8.143s-5.363.14-7.456 3.3-2.148 6.806-.123 8.143 5.363-.14 7.455-3.3M42.285 5.19c.663-2.28-.271-4.556-2.087-5.083s-3.826.894-4.49 3.174c-.663 2.28.272 4.555 2.088 5.082s3.825-.894 4.489-3.174M76.923 7.993c1.505-.977 1.63-3.45.28-5.525S73.538-.497 72.033.48s-1.63 3.45-.28 5.525c1.35 2.074 3.665 2.965 5.17 1.988M74.974 92.194c.813-1.523-.463-3.789-2.85-5.06s-4.982-1.065-5.796.458c-.813 1.524.463 3.79 2.85 5.06 2.388 1.271 4.982 1.066 5.796-.458M147.999 375.38c1.566-3.573 1.054-7.249-1.145-8.211-2.199-.961-5.252 1.155-6.818 4.728-1.567 3.573-1.055 7.249 1.144 8.21s5.252-1.155 6.819-4.727M124.902 370.506c.995-2.27.466-4.694-1.181-5.415-1.647-.72-3.79.536-4.785 2.806s-.467 4.694 1.18 5.415c1.648.72 3.79-.536 4.786-2.806M172.016 362.509c.943-2.15.317-4.501-1.397-5.251-1.715-.75-3.869.385-4.812 2.535s-.317 4.501 1.397 5.251c1.715.75 3.869-.385 4.812-2.535M76.949 242.388c1.272-1.094.856-3.659-.93-5.73-1.785-2.071-4.263-2.863-5.536-1.769s-.856 3.66.93 5.73c1.785 2.071 4.264 2.863 5.536 1.769M99.033 298.478c.841-2.89.08-5.652-1.698-6.168-1.78-.516-3.903 1.409-4.744 4.299s-.08 5.653 1.699 6.169c1.778.516 3.902-1.409 4.743-4.3M180.151 300.03c1.681-1.678.69-5.39-2.214-8.29s-6.62-3.889-8.301-2.21-.69 5.39 2.214 8.29 6.62 3.889 8.301 2.21M189.388 193.874c2.535-2.532 1.04-8.13-3.34-12.504s-9.986-5.868-12.521-3.336-1.04 8.13 3.34 12.504 9.986 5.867 12.521 3.336M162.325 259.591c.056-1.31-1.69-2.447-3.9-2.54-2.209-.094-4.045.891-4.101 2.201-.056 1.309 1.69 2.446 3.9 2.54s4.045-.892 4.101-2.201M118.45 308.947c.688-2.365-.145-4.686-1.861-5.184s-3.665 1.016-4.353 3.381.146 4.686 1.861 5.184 3.665-1.016 4.353-3.381M153.506 262.548c1.217-3.233-1.902-7.394-6.967-9.295-5.065-1.902-10.157-.822-11.374 2.41-1.216 3.233 1.903 7.394 6.968 9.295 5.065 1.902 10.157.822 11.373-2.41M111.264 271.506c1.79-2.703 1.838-5.822.106-6.966s-4.587.121-6.378 2.824c-1.79 2.704-1.838 5.823-.106 6.966 1.732 1.144 4.587-.12 6.378-2.824M114.064 293.674c1.728-1.122 1.869-3.967.314-6.355s-4.214-3.415-5.942-2.293-1.869 3.966-.315 6.355c1.554 2.388 4.215 3.415 5.943 2.293M118.43 325.302c2.006-1.725 1.352-5.768-1.46-9.03-2.813-3.263-6.72-4.509-8.726-2.783-2.006 1.725-1.352 5.768 1.461 9.03 2.812 3.262 6.719 4.509 8.725 2.783M98.834 326.423c1.877-1.218 2.038-4.296.36-6.875s-4.56-3.681-6.437-2.463-2.038 4.296-.36 6.875 4.56 3.681 6.437 2.463M155.304 357.011c3.828 0 6.932-1.722 6.932-3.845s-3.104-3.845-6.932-3.845-6.932 1.721-6.932 3.845 3.104 3.845 6.932 3.845M136.004 354.474c.636-2.187-.134-4.334-1.72-4.794-1.587-.46-3.388.94-4.025 3.127-.636 2.188.134 4.334 1.72 4.794 1.587.46 3.388-.94 4.025-3.127"/><path d="M127.071 323.202c2.023-3.048 2.081-6.566.13-7.857-1.95-1.291-5.172.134-7.194 3.182s-2.082 6.567-.131 7.858 5.172-.134 7.195-3.183M136.583 345.192c1.683-1.08 1.834-3.84.338-6.164-1.497-2.325-4.074-3.334-5.756-2.254s-1.834 3.841-.337 6.165c1.496 2.325 4.073 3.333 5.755 2.253M157.963 348.139c2.849-.591 4.845-2.576 4.459-4.432s-3.009-2.883-5.858-2.291c-2.849.591-4.846 2.575-4.459 4.432.386 1.856 3.009 2.882 5.858 2.291M170.045 267.654c1.444-1.109 1.059-4.029-.86-6.522s-4.646-3.616-6.09-2.507c-1.445 1.108-1.059 4.028.86 6.522 1.919 2.493 4.646 3.616 6.09 2.507M83.718 303.359c1.41-.924 1.333-3.53-.172-5.821s-3.869-3.399-5.279-2.476c-1.41.924-1.333 3.531.173 5.822 1.505 2.291 3.868 3.399 5.278 2.475M75.027 283.19c2.344-5.345 1.58-10.844-1.709-12.282-3.287-1.437-7.852 1.73-10.196 7.075s-1.58 10.844 1.709 12.281c3.287 1.438 7.853-1.729 10.196-7.074"/><path d="M81.674 292.205c.907-2.069.307-4.33-1.34-5.051-1.648-.72-3.719.373-4.626 2.442s-.307 4.33 1.34 5.05c1.648.721 3.718-.372 4.626-2.441M181.631 228.752c1.878-1.614 1.266-5.397-1.365-8.449s-6.287-4.217-8.164-2.603c-1.878 1.614-1.267 5.397 1.365 8.449 2.631 3.053 6.287 4.218 8.164 2.603M97.714 64.832c1.269-1.267.52-4.068-1.67-6.257-2.192-2.188-4.997-2.935-6.266-1.668s-.521 4.07 1.67 6.258c2.192 2.188 4.997 2.935 6.266 1.667M105.736 70.018c.601-1.599-.941-3.656-3.444-4.596s-5.02-.406-5.622 1.193c-.602 1.598.94 3.655 3.443 4.595s5.021.406 5.623-1.192M71.534 22.73c1.414-1.086 1.038-3.942-.839-6.38-1.877-2.44-4.544-3.536-5.958-2.451-1.413 1.085-1.038 3.942.839 6.38s4.544 3.535 5.958 2.45M47.013 52.267c1.817-1.19 1.717-4.548-.222-7.5s-4.984-4.38-6.8-3.189c-1.817 1.19-1.718 4.548.221 7.5s4.985 4.38 6.801 3.19M108.353 339.211c.672-2.309-.141-4.575-1.817-5.061s-3.577.992-4.249 3.301.141 4.576 1.816 5.062 3.578-.992 4.25-3.302M103.25 348.928c1.4-.917 1.322-3.508-.175-5.786-1.496-2.279-3.845-3.382-5.245-2.464s-1.323 3.508.174 5.787 3.846 3.381 5.246 2.463M18.003 112.118c1.555-1.193 1.14-4.336-.925-7.018-2.065-2.683-4.999-3.891-6.553-2.698s-1.14 4.336.925 7.019 4.999 3.89 6.553 2.697M31.033 100.403c.31-2.361-2.896-4.727-7.159-5.284s-7.97.907-8.278 3.269c-.31 2.361 2.895 4.727 7.159 5.284 4.262.556 7.969-.907 8.278-3.269M128.221 342.202c1.847-4.211.869-8.709-2.186-10.044s-7.027.995-8.874 5.207-.868 8.709 2.186 10.045 7.027-.996 8.874-5.208M118.397 357.926c2.333-1.115 2.973-4.628 1.431-7.848-1.543-3.219-4.684-4.925-7.017-3.811-2.332 1.115-2.972 4.628-1.43 7.847s4.684 4.926 7.016 3.812M125.81 141.474c1.313-2.993.618-6.19-1.553-7.139s-4.994.708-6.307 3.702-.618 6.19 1.553 7.139c2.171.95 4.994-.708 6.307-3.702M147.142 95.276c1.313-2.994.617-6.19-1.553-7.14s-4.995.708-6.307 3.702-.618 6.19 1.553 7.14 4.994-.709 6.307-3.702M171.124 245.411c3.539 0 6.408-1.59 6.408-3.552s-2.869-3.552-6.408-3.552c-3.538 0-6.407 1.591-6.407 3.552s2.869 3.552 6.407 3.552M103.729 146.286c1.682-.625 2.733-1.969 2.349-3.002-.385-1.033-2.06-1.364-3.742-.74s-2.734 1.969-2.35 3.002c.385 1.033 2.061 1.365 3.743.74M120.341 52.368c.838-1.571-.478-3.908-2.94-5.218s-5.138-1.1-5.977.471.477 3.908 2.94 5.219c2.462 1.31 5.138 1.1 5.977-.472M133.784 271.256c.942-2.147.441-4.44-1.118-5.121-1.559-.682-3.586.505-4.527 2.652-.941 2.146-.441 4.439 1.118 5.121s3.586-.506 4.527-2.652M110.541 254.67c.221-1.268-1.335-2.598-3.476-2.971-2.14-.372-4.055.354-4.276 1.622s1.335 2.599 3.475 2.971 4.056-.354 4.277-1.622M121.501 249.442c2.139-2.464 2.594-5.568 1.017-6.934-1.578-1.366-4.59-.476-6.729 1.987s-2.594 5.568-1.017 6.934 4.59.476 6.729-1.987M109.73 250.423c2.556-1.221 3.256-5.072 1.566-8.601-1.691-3.528-5.133-5.399-7.688-4.178-2.556 1.221-3.256 5.071-1.566 8.6 1.691 3.529 5.133 5.4 7.688 4.179M105.423 111.796c.695-2.655-1.721-5.584-5.395-6.543-3.674-.958-7.216.417-7.91 3.072s1.721 5.585 5.395 6.543 7.216-.417 7.91-3.072M166.331 144.151c.221-1.268-1.335-2.598-3.475-2.97s-4.055.353-4.276 1.622c-.222 1.268 1.334 2.598 3.475 2.97s4.055-.354 4.276-1.622M155.365 148.298c2.242-2.583 2.72-5.837 1.067-7.269s-4.811-.498-7.054 2.084c-2.243 2.583-2.72 5.837-1.067 7.269s4.811.499 7.054-2.084M144.223 149.819c2.604-1.244 3.318-5.167 1.596-8.762-1.722-3.594-5.23-5.5-7.834-4.256-2.604 1.245-3.318 5.168-1.596 8.762s5.23 5.501 7.834 4.256M147.25 118.68c2.569-1.228 3.275-5.098 1.576-8.644s-5.159-5.426-7.728-4.198-3.275 5.097-1.576 8.644 5.159 5.425 7.728 4.198M52.94 205.156c.008-1.796-2.356-3.264-5.281-3.278-2.926-.014-5.304 1.43-5.313 3.226s2.356 3.263 5.28 3.278c2.926.014 5.305-1.43 5.313-3.226M96.02 185.264c1.583-1.019 1.52-3.93-.14-6.502-1.66-2.573-4.288-3.832-5.872-2.813s-1.52 3.93.14 6.502 4.288 3.832 5.871 2.813M120.304 181.161c4.185-.293 7.44-2.49 7.27-4.908-.169-2.419-3.699-4.142-7.883-3.85s-7.44 2.49-7.271 4.908 3.699 4.142 7.884 3.85M161.541 112.372c1.457-.938 1.588-3.323.294-5.329s-3.524-2.871-4.98-1.933-1.589 3.323-.294 5.328 3.523 2.871 4.98 1.934M85.572 169.656c2.268-1.224 3.471-3.39 2.688-4.837-.784-1.448-3.257-1.63-5.525-.405s-3.472 3.39-2.688 4.837c.784 1.448 3.257 1.63 5.525.405M70.955 234.521c1.746-1.123 2.015-3.809.602-5.999s-3.974-3.055-5.72-1.931c-1.745 1.123-2.014 3.809-.6 5.999s3.973 3.055 5.718 1.931M135.36 248.381c1.482-.951 1.424-3.678-.128-6.09s-4.013-3.596-5.494-2.645c-1.482.952-1.424 3.678.129 6.09s4.012 3.596 5.493 2.645M134.452 212.667c.885-3.783-.091-7.245-2.181-7.732s-4.501 2.184-5.386 5.967.092 7.245 2.181 7.732 4.501-2.184 5.386-5.967M163.225 86.742c2.788-1.79 3.043-6.356.569-10.2-2.474-3.842-6.739-5.506-9.527-3.716s-3.043 6.356-.569 10.198 6.739 5.507 9.527 3.718M119.603 227.78c2.071-.574 3.021-3.662 2.121-6.897-.899-3.234-3.307-5.391-5.378-4.816-2.072.574-3.022 3.662-2.122 6.896s3.308 5.391 5.379 4.817M132.359 224.256c.25-1.782-1.545-3.507-4.01-3.852-2.466-.345-4.667.82-4.917 2.603-.25 1.782 1.545 3.507 4.011 3.852 2.465.345 4.666-.82 4.916-2.603M164.185 94.257c.28-1.989-1.725-3.913-4.477-4.298-2.751-.386-5.208.914-5.488 2.903-.279 1.988 1.726 3.913 4.477 4.298s5.209-.915 5.488-2.903M179.335 48.778c.283-2.011-1.744-3.957-4.526-4.347s-5.267.925-5.549 2.937 1.744 3.957 4.526 4.347 5.267-.925 5.549-2.937M70.251 259.553c2.178-1.399 2.094-5.407-.187-8.952-2.282-3.545-5.898-5.285-8.077-3.886-2.178 1.399-2.094 5.406.188 8.951s5.898 5.285 8.076 3.887M149.777 171.928c.104-1.708-2.211-3.237-5.169-3.416-2.959-.179-5.441 1.061-5.545 2.769-.103 1.709 2.212 3.238 5.17 3.417 2.959.178 5.441-1.062 5.544-2.77M176.934 160.074c.962-2.557.569-5.072-.88-5.616s-3.403 1.089-4.366 3.647-.569 5.072.88 5.616 3.403-1.089 4.366-3.647M62.418 103.976c1.07-3.199-.96-6.758-4.533-7.949s-7.336.437-8.405 3.635c-1.07 3.199.96 6.758 4.533 7.949s7.336-.436 8.405-3.635M168.42 161.28c2.929-2.591 4.135-6.009 2.695-7.633-1.441-1.624-4.984-.84-7.913 1.752s-4.135 6.009-2.695 7.633c1.441 1.624 4.984.84 7.913-1.752M92.363 194.464c2.96-2.619 4.18-6.074 2.724-7.715s-5.037-.849-7.998 1.771c-2.96 2.62-4.18 6.074-2.724 7.716 1.456 1.641 5.037.848 7.998-1.772M176.137 140.734c1.559-.738 1.997-3.078.978-5.227s-3.109-3.293-4.669-2.556-1.996 3.077-.977 5.226 3.109 3.294 4.668 2.557M167.98 178.926c1.733-2.32 1.909-5.116.393-6.245s-4.15-.164-5.882 2.156c-1.733 2.32-1.909 5.117-.394 6.246s4.15.163 5.883-2.157M171.758 122.446c.237-1.741-1.875-3.465-4.716-3.85s-5.337.714-5.573 2.455 1.875 3.466 4.716 3.851 5.337-.714 5.573-2.456M179.142 105.203c.248-1.825-1.966-3.633-4.945-4.037s-5.595.749-5.843 2.575c-.248 1.825 1.966 3.632 4.945 4.036s5.595-.748 5.843-2.574M102.01 283.584c3.934-.817 6.69-3.556 6.157-6.118s-4.154-3.977-8.088-3.161-6.69 3.555-6.156 6.118c.533 2.562 4.154 3.977 8.087 3.161M92.857 280.621c.234-1.723-1.851-3.427-4.658-3.808s-5.272.707-5.507 2.43c-.234 1.722 1.852 3.427 4.659 3.807 2.807.381 5.272-.707 5.506-2.429"/><path d="M100.485 147.447c.109-1.808-2.338-3.427-5.466-3.616s-5.752 1.124-5.862 2.932 2.338 3.427 5.466 3.616c3.128.188 5.752-1.124 5.862-2.932M102.651 130.941c2.721-2.408 3.842-5.583 2.504-7.091s-4.63-.78-7.35 1.627c-2.722 2.408-3.843 5.583-2.504 7.091s4.63.78 7.35-1.627M133.665 173.552c2.31-.883 3.725-2.795 3.159-4.271-.565-1.476-2.897-1.956-5.207-1.073s-3.725 2.795-3.159 4.271c.565 1.475 2.896 1.956 5.207 1.073M156.193 138.754c2.232-.315 3.64-3.396 3.146-6.88s-2.703-6.052-4.935-5.737c-2.231.316-3.64 3.396-3.146 6.88s2.704 6.053 4.935 5.737M173.482 322.071c.204-1.17-1.23-2.396-3.204-2.739-1.973-.344-3.738.326-3.942 1.496s1.23 2.395 3.204 2.739c1.973.343 3.738-.327 3.942-1.496M162.887 326.335c2.293-2.641 2.781-5.969 1.09-7.434s-4.921-.51-7.214 2.131-2.781 5.969-1.09 7.433c1.691 1.465 4.921.511 7.214-2.13M163.617 316.69c2.212-.313 3.609-3.366 3.119-6.82-.489-3.453-2.68-5.999-4.892-5.687-2.213.313-3.609 3.367-3.12 6.82.49 3.454 2.681 6 4.893 5.687M136.518 130.145c.717-2.597-1.614-5.505-5.208-6.495s-7.089.311-7.806 2.908c-.718 2.597 1.613 5.505 5.207 6.496 3.594.99 7.089-.312 7.807-2.909M117.652 152.316c1.516-2.029 1.669-4.476.342-5.465s-3.632-.144-5.148 1.885-1.669 4.477-.342 5.466 3.632.144 5.148-1.886M31.89 79.69c.008-1.72-2.256-3.124-5.058-3.138s-5.08 1.37-5.088 3.088C21.735 81.36 24 82.764 26.8 82.777c2.802.014 5.08-1.368 5.089-3.087M49.425 95.216c1.33-.856 1.278-3.302-.116-5.463s-3.603-3.218-4.933-2.362-1.278 3.301.116 5.462 3.603 3.219 4.933 2.363M92.124 43.465c3.022-.212 5.373-1.798 5.251-3.543s-2.671-2.99-5.693-2.778c-3.023.21-5.373 1.797-5.251 3.542.122 1.746 2.671 2.99 5.693 2.779M77.096 59.684c.856-3.66-.086-7.007-2.104-7.478s-4.348 2.114-5.204 5.773.086 7.007 2.104 7.478c2.018.47 4.348-2.114 5.204-5.773M49.784 76.658c2.488-2.625 3.24-5.95 1.679-7.426s-4.844-.544-7.333 2.082-3.24 5.95-1.68 7.426c1.562 1.475 4.845.544 7.333-2.082M78.339 75.713c.46-2.365-1.31-4.698-3.955-5.211-2.644-.514-5.161.987-5.621 3.352s1.31 4.697 3.954 5.21c2.645.514 5.161-.987 5.621-3.351M89.202 55.773c2.514-2.888 3.251-6.359 1.646-7.752s-4.944-.181-7.458 2.707-3.251 6.36-1.646 7.752c1.605 1.394 4.944.182 7.458-2.707"/><path d="M70.359 84.28c1.45-.933 1.58-3.31.29-5.309s-3.511-2.862-4.962-1.93c-1.45.934-1.58 3.311-.29 5.31s3.511 2.862 4.962 1.93M68.288 150.329c1.372-.884 1.495-3.133.274-5.025s-3.323-2.71-4.695-1.827-1.495 3.133-.274 5.025c1.22 1.892 3.323 2.71 4.695 1.827M168.62 67.365c2.39-1.29 3.658-3.572 2.833-5.098-.826-1.526-3.433-1.717-5.823-.427s-3.659 3.573-2.833 5.099c.826 1.525 3.433 1.716 5.823.426M37.04 69.257c2.254-.625 3.288-3.982 2.31-7.5-.978-3.516-3.597-5.86-5.85-5.235-2.254.625-3.288 3.982-2.31 7.499s3.597 5.861 5.85 5.236M63.267 67.987c.406-2.893-2.512-5.693-6.517-6.253s-7.582 1.33-7.988 4.223 2.512 5.693 6.517 6.253 7.582-1.33 7.988-4.223M85.044 36.066c2.372-4.227 2.057-8.905-.704-10.45-2.76-1.545-6.921.628-9.293 4.854s-2.057 8.905.704 10.45c2.76 1.545 6.921-.628 9.293-4.854M143.89 64.77c3.222-.225 5.729-1.916 5.599-3.777-.131-1.86-2.849-3.187-6.071-2.962s-5.729 1.916-5.599 3.777c.131 1.86 2.849 3.187 6.071 2.962M120.794 78.174c.86-3.678-.276-7.088-2.539-7.616s-4.794 2.026-5.654 5.704.276 7.088 2.538 7.616c2.263.528 4.794-2.026 5.655-5.704M138.168 80.894c3.567-4.098 4.61-9.026 2.33-11.005s-7.022-.263-10.589 3.836c-3.568 4.098-4.611 9.025-2.33 11.005s7.021.263 10.589-3.836M94.528 268.464c2.155-1.384 2.073-5.348-.184-8.854-2.256-3.506-5.834-5.227-7.99-3.843-2.155 1.384-2.073 5.348.184 8.855 2.257 3.506 5.834 5.226 7.99 3.842M108.425 54.924c2.35-1.268 3.597-3.51 2.786-5.01-.812-1.498-3.374-1.685-5.723-.417s-3.597 3.511-2.785 5.01 3.373 1.685 5.722.417M91.096 85.597c2.276-.631 3.32-4.024 2.331-7.578s-3.634-5.923-5.91-5.292c-2.275.631-3.319 4.024-2.33 7.578.987 3.554 3.633 5.923 5.91 5.292M163.034 296.693c.828-1.551-.475-3.859-2.91-5.156s-5.08-1.09-5.908.461c-.827 1.551.475 3.859 2.911 5.156s5.08 1.089 5.907-.461M166.447 280.168c.472-2.429-1.346-4.825-4.062-5.352s-5.302 1.014-5.775 3.443c-.472 2.429 1.346 4.825 4.062 5.352s5.302-1.014 5.775-3.443"/><path d="M158.292 288.636c1.415-.91 1.541-3.229.282-5.179s-3.425-2.793-4.839-1.883-1.541 3.229-.282 5.179 3.425 2.794 4.839 1.883M89.881 108.621c1.528-.984 1.763-3.335.526-5.253-1.238-1.918-3.48-2.676-5.008-1.692-1.528.983-1.763 3.335-.525 5.253s3.48 2.675 5.007 1.692M142.319 306.087c3.556-1.373 5.634-4.567 4.64-7.134s-4.682-3.534-8.239-2.161c-3.556 1.374-5.634 4.568-4.64 7.134s4.683 3.534 8.239 2.161M132.638 305.559c.698-1.776-.548-3.926-2.783-4.801-2.235-.876-4.612-.145-5.309 1.631s.548 3.925 2.783 4.8c2.234.876 4.611.146 5.309-1.63M108.029 87.136c.252-1.793-1.555-3.53-4.035-3.876-2.48-.348-4.695.825-4.947 2.619s1.555 3.53 4.035 3.877 4.695-.826 4.947-2.62M125.82 61.423c1.31-2.333 1.135-4.917-.39-5.77-1.525-.854-3.823.346-5.132 2.679-1.31 2.333-1.135 4.916.39 5.77s3.823-.346 5.132-2.679M142.404 52.955c.15-2.486-3.213-4.71-7.512-4.97s-7.906 1.544-8.057 4.03c-.15 2.485 3.213 4.71 7.512 4.97s7.906-1.545 8.057-4.03M152.434 43.545c5.617-.993 9.71-4.395 9.142-7.598s-5.581-4.994-11.198-4.001-9.71 4.394-9.142 7.597 5.582 4.995 11.198 4.002M106.702 217.158c2.98-.208 5.298-1.773 5.177-3.496-.12-1.722-2.634-2.95-5.613-2.742s-5.298 1.773-5.177 3.496c.12 1.722 2.634 2.95 5.613 2.742M102.764 231.885c3.937-4.523 5.091-9.959 2.577-12.141-2.513-2.182-7.742-.284-11.68 4.239s-5.09 9.958-2.577 12.14 7.743.285 11.68-4.238M105.187 205.595c.15-2.474-3.198-4.688-7.478-4.947-4.28-.258-7.87 1.538-8.02 4.011-.15 2.474 3.198 4.689 7.478 4.947 4.279.259 7.87-1.537 8.02-4.011M115.269 196.209c5.632-.996 9.735-4.409 9.166-7.623-.57-3.215-5.598-5.013-11.23-4.018-5.631.996-9.735 4.409-9.165 7.624s5.597 5.013 11.229 4.017M157.195 53.974c2.743-1.048 4.423-3.316 3.753-5.066-.671-1.749-3.438-2.317-6.18-1.27-2.743 1.05-4.424 3.317-3.753 5.066.67 1.75 3.437 2.318 6.18 1.27M131.815 98.917c.826-2.83.085-5.536-1.657-6.043s-3.823 1.376-4.649 4.206-.085 5.537 1.656 6.044 3.823-1.376 4.65-4.207M40.217 41.933c1.859-1.218 1.756-4.656-.23-7.678s-5.102-4.486-6.961-3.268-1.756 4.655.23 7.678 5.103 4.486 6.961 3.268M31.65 8.813c1.161-2.648.782-5.372-.848-6.085-1.63-.712-3.892.856-5.053 3.504s-.782 5.372.848 6.085 3.892-.856 5.053-3.504M22.162 42.506c2.26-2.603 2.74-5.884 1.073-7.328-1.668-1.445-4.852-.505-7.113 2.098-2.26 2.603-2.74 5.884-1.073 7.328 1.668 1.445 4.852.505 7.113-2.098M46.456 18.274c1.909-4.353 1.092-8.916-1.825-10.191s-6.828 1.219-8.737 5.572-1.092 8.916 1.825 10.191 6.828-1.22 8.737-5.572M167.697 186.566c.658-2.262-.269-4.518-2.07-5.041s-3.794.887-4.452 3.148.269 4.519 2.07 5.041 3.794-.887 4.452-3.148"/><path d="M171.868 199.635c1.902-4.335 1.087-8.88-1.819-10.151s-6.803 1.213-8.704 5.549c-1.901 4.335-1.086 8.88 1.82 10.151s6.802-1.214 8.703-5.549M17.925 24.252c1.594-.762 2.032-3.163.978-5.364s-3.202-3.367-4.797-2.605-2.032 3.163-.977 5.364c1.054 2.2 3.201 3.367 4.796 2.605M121.039 105.725c2.401-.917 3.871-2.901 3.285-4.431s-3.007-2.026-5.408-1.109c-2.4.917-3.871 2.901-3.285 4.431s3.008 2.026 5.408 1.109M107.83 34.66c1.687-2.258 1.858-4.98.382-6.079s-4.039-.16-5.726 2.1c-1.686 2.257-1.857 4.98-.382 6.078 1.476 1.1 4.039.16 5.726-2.098M46.447 186.038c3.338-.234 5.935-1.985 5.8-3.912-.136-1.927-2.951-3.3-6.29-3.067s-5.935 1.985-5.8 3.912c.136 1.927 2.951 3.3 6.29 3.067M38.357 213.023c2.705-3.106 3.496-6.84 1.77-8.339-1.728-1.5-5.32-.197-8.024 2.91-2.704 3.106-3.496 6.84-1.77 8.339 1.728 1.5 5.32.197 8.024-2.91M31.53 179.598c2.257-1.219 3.455-3.375 2.675-4.816s-3.242-1.621-5.5-.403c-2.258 1.219-3.456 3.375-2.676 4.816s3.242 1.621 5.5.403M31.06 194.589c1.399-2.491 1.214-5.249-.412-6.159s-4.078.372-5.476 2.863-1.213 5.249.413 6.159 4.077-.372 5.476-2.863M70.653 123.228c1.733-.82 2.054-3.772.716-6.593s-3.828-4.445-5.561-3.625-2.055 3.772-.717 6.593 3.828 4.444 5.562 3.625M36.4 169.565c.105-1.723-2.227-3.266-5.21-3.446-2.98-.18-5.482 1.071-5.587 2.794s2.228 3.267 5.21 3.447 5.483-1.071 5.588-2.795M66.479 169.135c3.674-2.983 5.214-7.169 3.439-9.349s-6.192-1.529-9.866 1.454c-3.675 2.983-5.215 7.169-3.44 9.349s6.192 1.529 9.867-1.454M75.342 131.893c.853-2.552-1.628-5.678-5.54-6.983-3.914-1.304-7.778-.293-8.63 2.258-.854 2.552 1.627 5.678 5.54 6.983s7.777.293 8.63-2.258M61.37 33.384c1.67-.79 1.98-3.633.692-6.35s-3.687-4.279-5.358-3.489-1.98 3.634-.693 6.35c1.289 2.717 3.688 4.28 5.358 3.49M65.848 42.139c.817-2.446-1.562-5.443-5.314-6.694-3.752-1.25-7.456-.282-8.274 2.164-.817 2.445 1.562 5.442 5.314 6.693s7.456.282 8.274-2.163M36.867 146.542c2.687-2.377 3.794-5.51 2.473-6.999-1.32-1.488-4.568-.768-7.255 1.609-2.686 2.377-3.794 5.51-2.473 6.999 1.32 1.488 4.569.768 7.255-1.609M51.615 136.031c3.125-1.478 4.002-6.169 1.96-10.478-2.044-4.309-6.234-6.604-9.359-5.126s-4.002 6.169-1.96 10.478c2.044 4.309 6.234 6.604 9.36 5.126M52.788 177.555c2.85-1.089 4.598-3.446 3.9-5.264-.696-1.818-3.572-2.408-6.422-1.318-2.852 1.089-4.598 3.446-3.902 5.264.697 1.817 3.573 2.408 6.424 1.318M78.066 150.249c2.197-.311 3.584-3.341 3.098-6.768s-2.66-5.953-4.858-5.642-3.584 3.341-3.098 6.767 2.66 5.953 4.858 5.643M90.194 130.453c3.237-1.53 4.299-6.067 2.37-10.131-1.927-4.065-6.113-6.12-9.35-4.589s-4.298 6.067-2.37 10.132 6.114 6.119 9.35 4.588M148.68 321.072c1.709-.809 2.026-3.717.708-6.497s-3.772-4.378-5.482-3.57c-1.709.809-2.026 3.717-.708 6.497 1.319 2.78 3.773 4.378 5.482 3.57M153.361 329.788c.846-2.53-1.614-5.629-5.494-6.923-3.881-1.293-7.712-.291-8.558 2.239-.845 2.53 1.615 5.629 5.495 6.923 3.881 1.293 7.712.291 8.557-2.239"/><path d="M45.129 154.539c2.866-3.836 3.158-8.46.652-10.327s-6.86-.269-9.726 3.568-3.158 8.461-.652 10.327c2.505 1.867 6.86.269 9.726-3.568M47.327 106.978c.233-1.71-1.838-3.404-4.626-3.782s-5.237.703-5.47 2.414 1.84 3.404 4.627 3.782 5.237-.703 5.47-2.414M20.371 203.826c3.056-2.704 4.314-6.271 2.81-7.967-1.506-1.696-5.203-.879-8.26 1.825-3.055 2.704-4.313 6.271-2.808 7.967s5.202.879 8.258-1.825M30.356 129.34c2.19-.31 3.57-3.336 3.085-6.759s-2.654-5.947-4.843-5.637-3.571 3.336-3.086 6.759 2.654 5.946 4.844 5.637M34.866 98.422c1.681-.795 2.233-3.151 1.232-5.262s-3.175-3.177-4.857-2.382c-1.68.795-2.232 3.15-1.231 5.261 1 2.111 3.175 3.178 4.856 2.383M104.659 173.291c3.418-1.617 4.541-6.403 2.508-10.691s-6.453-6.454-9.871-4.837-4.54 6.403-2.508 10.691c2.034 4.287 6.453 6.453 9.871 4.837M153.377 247.232c4.331-.302 7.7-2.577 7.524-5.08-.175-2.502-3.828-4.286-8.159-3.984-4.331.303-7.7 2.577-7.525 5.08s3.829 4.286 8.16 3.984M144.034 242.221c1.262-2.249 1.095-4.739-.372-5.56-1.468-.822-3.681.335-4.944 2.585s-1.095 4.738.372 5.56 3.681-.336 4.944-2.585M136.368 161.366c1.76-.497 2.94-1.775 2.634-2.854-.305-1.079-1.98-1.551-3.74-1.054s-2.94 1.774-2.635 2.853 1.98 1.552 3.741 1.055M132.091 157.992c.018-1.657-2.291-3.025-5.159-3.056s-5.206 1.287-5.224 2.944 2.292 3.026 5.159 3.057 5.206-1.288 5.224-2.945M149.38 226.043c.734-2.912-.04-5.616-1.728-6.04s-3.651 1.592-4.384 4.504.04 5.616 1.728 6.04 3.651-1.593 4.384-4.504M165.633 215.311c1.476-2.223 1.361-4.893-.257-5.965-1.618-1.071-4.126-.138-5.602 2.085s-1.361 4.893.257 5.964 4.126.138 5.602-2.084M157.368 225.791c2.591-1.093 3.466-4.877 1.954-8.453s-4.839-5.587-7.431-4.493-3.466 4.877-1.954 8.453 4.839 5.587 7.431 4.493M17.379 68.311c1.833-4.18.86-8.644-2.173-9.97s-6.978.987-8.811 5.167-.86 8.643 2.173 9.97 6.978-.987 8.81-5.167M7.443 83.74c2.211-1.056 2.819-4.384 1.358-7.433-1.46-3.05-4.437-4.665-6.648-3.609S-.665 77.083.796 80.132c1.46 3.049 4.437 4.664 6.647 3.608M121.825 122.41c1.579-2.113 1.74-4.659.36-5.687s-3.778-.148-5.356 1.965-1.739 4.659-.36 5.687 3.778.148 5.356-1.965M72.169 200.84c2.169-1.036 2.77-4.292 1.342-7.271s-4.343-4.555-6.512-3.518-2.77 4.291-1.342 7.271 4.343 4.554 6.512 3.518"/><path d="M78.773 207.823c.448-3.195-2.773-6.286-7.195-6.906-4.422-.619-8.37 1.469-8.818 4.664s2.772 6.286 7.194 6.905 8.37-1.469 8.819-4.663M74.3 185.751c1.91-2.558 2.105-5.64.434-6.885-1.67-1.244-4.573-.179-6.484 2.379s-2.105 5.64-.435 6.885c1.67 1.244 4.574.179 6.484-2.379M139.679 289.2c4.064-1.279 6.765-4.196 6.033-6.515s-4.62-3.163-8.683-1.885c-4.064 1.279-6.765 4.196-6.033 6.516.732 2.319 4.619 3.163 8.683 1.884M123.53 292.711c2.794-1.508 4.277-4.177 3.312-5.96s-4.013-2.007-6.807-.499-4.277 4.177-3.312 5.96 4.013 2.007 6.807.499M173.62 378.39c3.767-.782 6.407-3.404 5.897-5.856s-3.978-3.808-7.745-3.026-6.408 3.404-5.897 5.857c.51 2.453 3.978 3.807 7.745 3.025"/><path d="M165.013 384.882c3.736-1.444 6.016-4.547 5.092-6.931-.924-2.383-4.702-3.145-8.438-1.7-3.736 1.444-6.016 4.547-5.092 6.931.924 2.383 4.702 3.145 8.438 1.7M141.915 206.826c2.155-.305 3.516-3.281 3.038-6.646-.477-3.366-2.611-5.847-4.766-5.543s-3.515 3.281-3.038 6.646c.477 3.366 2.611 5.848 4.766 5.543M140.725 192.368c2.581-1.221 3.428-4.836 1.892-8.076-1.536-3.239-4.873-4.876-7.454-3.655s-3.429 4.836-1.893 8.076c1.537 3.239 4.874 4.876 7.455 3.655"/></g><defs><clipPath id="a"><path fill="#fff" d="M0 0h170v416H0z"/></clipPath></defs></svg>