<svg xmlns="http://www.w3.org/2000/svg" width="437" height="173" fill="none"><g fill="#2A5EBC" clip-path="url(#a)"><path d="M66.39 134.374c.772 1.813 3.426 2.418 5.93 1.353s3.907-3.398 3.135-5.211c-.771-1.812-3.426-2.418-5.929-1.352-2.503 1.065-3.907 3.398-3.136 5.21m54.222-74.172c.381 1.707 2.233 2.747 4.137 2.322s3.137-2.154 2.756-3.86c-.381-1.708-2.233-2.747-4.136-2.322s-3.138 2.153-2.757 3.86M8.154 139.872c2.038.639 4.624-1.821 5.777-5.495 1.152-3.674.434-7.171-1.604-7.81s-4.625 1.821-5.777 5.495-.435 7.17 1.604 7.81m420.023-48.764c2.47 1.213 5.076.966 5.822-.552s-.652-3.732-3.121-4.945c-2.47-1.213-5.076-.966-5.822.551-.746 1.518.652 3.732 3.121 4.946m-20.347 31.723c-.646 3.678.486 6.951 2.529 7.31s4.223-2.332 4.869-6.01-.486-6.95-2.529-7.309-4.223 2.331-4.869 6.009m-3.101 16.81c2.762 2.616 6.358 3.304 8.032 1.537s.792-5.321-1.97-7.936-6.358-3.304-8.032-1.537-.792 5.32 1.97 7.936m32.276-74.651c2.14 1.052 4.552.524 5.388-1.178s-.22-3.934-2.36-4.985-4.552-.523-5.388 1.178.22 3.934 2.36 4.985m-8.783 33.722c.704 1.656 3.129 2.209 5.415 1.236 2.286-.972 3.568-3.103 2.863-4.76-.705-1.655-3.129-2.208-5.415-1.236-2.286.974-3.568 3.104-2.863 4.76M345.29 82.157c1.366 1.068 3.827.2 5.499-1.936s1.918-4.735.553-5.803c-1.366-1.068-3.828-.202-5.499 1.935s-1.919 4.736-.553 5.804M52.566 105.071c3.261 2.168 6.986 2.301 8.318.296 1.333-2.004-.23-5.387-3.492-7.555s-6.986-2.3-8.318-.296c-1.333 2.004.23 5.387 3.492 7.555m155.929 157.443c2.027.636 4.598-1.806 5.742-5.454s.429-7.121-1.598-7.757-4.599 1.806-5.743 5.455-.429 7.121 1.599 7.756M61.394 83.107c2.072 1.377 4.56 1.277 5.56-.225.998-1.502.127-3.836-1.945-5.214-2.072-1.377-4.562-1.277-5.56.225s-.128 3.836 1.945 5.214m-.267 47.92c1.962 1.305 4.396 1.095 5.435-.468s.29-3.887-1.672-5.192c-1.963-1.305-4.396-1.095-5.435.468-1.04 1.563-.29 3.887 1.672 5.192M196.415 58.01c.861 1.446 3.471 1.48 5.828.078 2.358-1.404 3.571-3.714 2.71-5.16s-3.47-1.482-5.828-.079-3.571 3.714-2.71 5.16m-59.302 12.065c2.713 1.333 5.576 1.062 6.395-.605s-.716-4.1-3.429-5.432-5.575-1.062-6.394.605.716 4.1 3.428 5.432m-15.611 79.843c1.369 1.952 5.211 1.619 8.583-.745s4.995-5.863 3.626-7.814c-1.368-1.952-5.211-1.618-8.582.745s-4.995 5.863-3.627 7.814m103.38 27.569c2.064 2.944 7.859 2.439 12.945-1.126s7.535-8.843 5.472-11.786c-2.064-2.944-7.86-2.44-12.946 1.126s-7.535 8.842-5.471 11.786m-60.294-38.147c1.285.283 2.713-1.244 3.189-3.41s-.18-4.15-1.465-4.433-2.713 1.245-3.189 3.41.18 4.151 1.465 4.433m-41.197-51.907c2.22 1.09 4.659.67 5.449-.938s-.368-3.795-2.588-4.886c-2.219-1.09-4.659-.67-5.449.938s.369 3.795 2.588 4.886m139.466 91.761c2.108 1.036 4.424.639 5.173-.885s-.352-3.601-2.461-4.637-4.424-.639-5.173.886c-.75 1.524.352 3.6 2.461 4.636m-99.663-49.077c2.985 1.763 7.642-.594 10.401-5.266s2.575-9.888-.41-11.651c-2.986-1.764-7.643.594-10.402 5.266s-2.575 9.888.411 11.651m-1.53-43.276c2.363 2.238 5.439 2.827 6.871 1.315 1.432-1.511.677-4.55-1.686-6.789s-5.439-2.827-6.871-1.315c-1.431 1.511-.676 4.551 1.686 6.789m-22.408-1.086c.81 1.9 3.599 2.534 6.23 1.414s4.109-3.569 3.299-5.47c-.809-1.902-3.598-2.535-6.229-1.415s-4.109 3.569-3.3 5.47M107.22 84.57c1.358 2.281 5.47 2.338 9.184.127 3.715-2.211 5.625-5.853 4.267-8.134s-5.47-2.338-9.184-.127c-3.715 2.211-5.625 5.853-4.267 8.134m-59.283 68.582c1.628 2.323 6.2 1.925 10.212-.887s5.943-6.975 4.315-9.298c-1.629-2.323-6.2-1.926-10.212.887s-5.944 6.975-4.315 9.298m61.575-88.13c.879 2.065 3.895 2.76 6.736 1.55 2.842-1.21 4.433-3.864 3.554-5.93s-3.895-2.759-6.737-1.55c-2.841 1.21-4.432 3.865-3.553 5.93m-40.048 50.456c-.665 3.781.5 7.145 2.6 7.514s4.34-2.397 5.005-6.178c.664-3.781-.5-7.145-2.6-7.514s-4.341 2.397-5.005 6.178m5.858-18.621c2.052 1.009 4.309.621 5.039-.865.73-1.487-.342-3.51-2.394-4.518s-4.31-.621-5.04.865c-.73 1.487.342 3.51 2.395 4.518"/><path d="M107.798 93.469c2.663 2.527 6.132 3.196 7.747 1.494s.765-5.131-1.898-7.659c-2.664-2.527-6.133-3.196-7.748-1.494s-.765 5.131 1.899 7.659M84.4 99.043c.777 1.849 3.48 2.477 6.038 1.404 2.559-1.074 4.003-3.444 3.227-5.293s-3.48-2.478-6.038-1.404c-2.558 1.073-4.003 3.443-3.227 5.293m-6.624 20.602c.09 2.916 1.707 5.233 3.61 5.174s3.372-2.471 3.282-5.387c-.09-2.917-1.707-5.233-3.61-5.174s-3.372 2.471-3.282 5.387m77.498 25.917c.846 1.619 3.801 1.746 6.599.284s4.382-3.96 3.537-5.579c-.846-1.619-3.801-1.746-6.6-.284-2.798 1.463-4.382 3.96-3.536 5.579m-26.637 19.361c1.256.983 3.522.182 5.062-1.787s1.771-4.362.515-5.344-3.523-.182-5.063 1.787c-1.54 1.97-1.77 4.362-.514 5.344m-19.764 4.861c-.269 2.703.943 5.037 2.707 5.213 1.763.175 3.411-1.874 3.68-4.577s-.942-5.037-2.706-5.213c-1.764-.175-3.411 1.874-3.681 4.577m26.071-115.683c.669 1.553 3.26 1.93 5.787.841s4.033-3.23 3.364-4.783-3.26-1.93-5.787-.841-4.033 3.23-3.364 4.783m21.454-5.079c4.879 3.244 10.45 3.444 12.442.447 1.993-2.998-.347-8.057-5.227-11.3-4.879-3.244-10.449-3.444-12.442-.447-1.992 2.998.348 8.057 5.227 11.3"/><path d="M146.33 54.02c1.888 1.255 4.229 1.056 5.227-.446s.277-3.737-1.612-4.992c-1.888-1.256-4.229-1.056-5.227.446-.998 1.501-.277 3.736 1.612 4.992m138.5 134.12c2.018 1.341 4.518 1.127 5.585-.477s.297-3.994-1.721-5.335c-2.017-1.341-4.518-1.127-5.585.478-1.066 1.605-.296 3.993 1.721 5.334m-93.095-24.375c1.271 2.134 5.118 2.188 8.593.12s5.261-5.476 3.991-7.611-5.118-2.189-8.593-.12-5.262 5.476-3.991 7.611m51.875 26.523c2.4 1.179 4.932.941 5.656-.531.723-1.473-.636-3.623-3.036-4.802s-4.932-.941-5.655.532c-.724 1.472.635 3.622 3.035 4.801m-12.546 62.784c1.069 1.524 4.072 1.262 6.708-.587s3.908-4.582 2.839-6.106-4.072-1.261-6.708.587-3.908 4.582-2.839 6.106m47.758-27.657c1.387.305 2.928-1.341 3.441-3.677.514-2.336-.195-4.476-1.582-4.781s-2.927 1.341-3.441 3.677.195 4.477 1.582 4.781m-52.806.551c-1.084 6.17.815 11.661 4.241 12.263 3.427.602 7.083-3.912 8.167-10.083 1.085-6.171-.814-11.661-4.241-12.263s-7.083 3.912-8.167 10.083m10.23-26.585c2.136 1.049 4.483.647 5.242-.899.76-1.545-.356-3.649-2.492-4.699s-4.484-.647-5.243.899c-.759 1.545.357 3.649 2.493 4.699m34.501 43.741c1.483.876 3.797-.297 5.169-2.62s1.281-4.915-.202-5.79c-1.482-.876-3.796.297-5.168 2.619s-1.282 4.915.201 5.791m-110.464-74.357c4.432 2.178 9.429 1.085 11.161-2.44s-.457-8.149-4.888-10.326c-4.432-2.178-9.429-1.085-11.161 2.44s.456 8.149 4.888 10.326m90.045 68.883c.088 2.851 1.668 5.115 3.528 5.057s3.298-2.415 3.209-5.266-1.668-5.115-3.528-5.057-3.298 2.415-3.209 5.266m-53.406 23.024c.908 1.526 3.658 1.565 6.142.086s3.762-3.915 2.853-5.441-3.659-1.565-6.143-.086-3.761 3.915-2.852 5.441m-7.818-59.605c2.48 1.218 5.098.97 5.847-.555s-.654-3.748-3.134-4.967-5.097-.97-5.847.555c-.749 1.525.654 3.748 3.134 4.967m186.241-.613c2.445 1.202 5.025.959 5.762-.541s-.647-3.691-3.093-4.892-5.025-.959-5.762.541.648 3.691 3.093 4.892m-197.96 58.405c1.477 2.107 5.626 1.746 9.267-.806s5.394-6.33 3.917-8.437c-1.477-2.108-5.626-1.747-9.267.806s-5.395 6.33-3.917 8.437m-51.372-81.673c5.591 1.754 10.912.658 11.886-2.447s-2.768-7.044-8.358-8.798-10.912-.658-11.886 2.448 2.768 7.044 8.358 8.797m-37.953 1.3c2.035 1 4.273.614 4.998-.862s-.337-3.483-2.372-4.483-4.273-.614-4.998.862.336 3.483 2.372 4.483m136.707 81.398c1.443.852 3.694-.289 5.028-2.548 1.335-2.259 1.247-4.781-.196-5.633s-3.694.288-5.028 2.548c-1.335 2.259-1.247 4.781.196 5.633m-95.909-47.387c1.12 1.597 4.263 1.325 7.019-.608s4.084-4.794 2.964-6.391-4.262-1.325-7.018.608-4.084 4.794-2.965 6.391"/><path d="M122.731 219.261c1.48.874 3.788-.295 5.156-2.611s1.277-4.901-.203-5.775-3.787.295-5.155 2.611-1.277 4.902.202 5.775m-92.342-14.978c1.064 1.518 4.056 1.255 6.683-.586 2.627-1.842 3.893-4.565 2.83-6.083-1.065-1.518-4.057-1.255-6.684.586-2.627 1.842-3.893 4.565-2.83 6.083m-6.309 6.854c1.453.858 3.718-.288 5.06-2.561 1.343-2.272 1.253-4.81-.2-5.668s-3.718.289-5.06 2.561c-1.343 2.273-1.253 4.81.2 5.668m181.775-35.824c1.075 1.534 4.097 1.27 6.749-.59s3.93-4.61 2.855-6.144-4.097-1.269-6.749.59c-2.652 1.86-3.93 4.61-2.855 6.144m-6.257 6.798c1.446.854 3.702-.288 5.038-2.55s1.247-4.789-.199-5.643-3.702.287-5.038 2.55-1.247 4.789.199 5.643m168.806-72.742c1.033 1.474 3.933 1.222 6.478-.562s3.77-4.425 2.737-5.898-3.934-1.222-6.478.562-3.77 4.425-2.737 5.898m-6.52 7.022c1.476.872 3.779-.294 5.142-2.603s1.273-4.888-.203-5.759-3.778.293-5.142 2.602-1.273 4.888.203 5.76m-145.472 99.946c2.379 2.254 5.476 2.849 6.915 1.329s.678-4.58-1.702-6.834-5.476-2.849-6.916-1.329c-1.439 1.52-.677 4.58 1.703 6.834m5.573-24.273c3.751 1.843 7.98.918 9.446-2.066s-.387-6.896-4.138-8.739-7.98-.918-9.446 2.065.387 6.897 4.138 8.74M195.313 221c.791 1.858 3.513 2.479 6.081 1.387 2.567-1.093 4.007-3.486 3.216-5.344s-3.514-2.48-6.081-1.387-4.007 3.485-3.216 5.344m-42.004 57.652c.122 3.938 2.303 7.066 4.871 6.986s4.552-3.336 4.43-7.274c-.122-3.937-2.303-7.065-4.871-6.985-2.569.079-4.552 3.336-4.43 7.273M414.584 90.83c.827 1.584 3.718 1.71 6.455.28s4.284-3.874 3.457-5.459c-.828-1.584-3.718-1.71-6.455-.28s-4.285 3.874-3.457 5.459M199.766 296.419c.33 1.793 1.49 3.082 2.59 2.879s1.724-1.82 1.393-3.612-1.489-3.082-2.589-2.879-1.724 1.82-1.394 3.612m-23.95-2.961c1.289.465 2.969-.919 3.754-3.092.784-2.173.375-4.312-.913-4.777s-2.969.919-3.754 3.093c-.784 2.173-.375 4.311.913 4.776m40.622 3.901c1.843.577 4.18-1.642 5.22-4.958s.389-6.472-1.453-7.05-4.18 1.641-5.22 4.957-.389 6.473 1.453 7.051m-3.062 19.732c2.004 1.332 4.411 1.237 5.375-.213s.12-3.706-1.884-5.039-4.411-1.237-5.375.213-.121 3.706 1.884 5.039m-32.523-33.205c1.302 1.018 3.65.19 5.245-1.85 1.594-2.039 1.832-4.518.53-5.535-1.301-1.018-3.649-.19-5.244 1.849s-1.833 4.518-.531 5.536m134.695-82.57c2.101 1.397 4.624 1.296 5.636-.225 1.011-1.521.127-3.887-1.974-5.284s-4.624-1.296-5.635.225-.128 3.887 1.973 5.284m-11.603 7.933c.769 2.754 4.481 4.125 8.29 3.061s6.273-4.159 5.504-6.914-4.481-4.125-8.29-3.061-6.274 4.16-5.504 6.914M389.627 61.48c.862 2 4.2 2.486 7.456 1.084 3.255-1.403 5.196-4.162 4.334-6.163-.862-2-4.2-2.486-7.456-1.083-3.255 1.402-5.196 4.161-4.334 6.162M190.206 237.609c2.173 1.07 4.563.663 5.337-.909.775-1.573-.359-3.716-2.532-4.786-2.173-1.071-4.563-.664-5.337.909-.775 1.573.359 3.715 2.532 4.786m-8.36-6.885c.658 1.528 3.209 1.898 5.697.826 2.488-1.071 3.971-3.179 3.313-4.707-.659-1.529-3.209-1.899-5.697-.827s-3.971 3.179-3.313 4.708M95.214 72.201c2.167 1.065 4.55.655 5.321-.914.771-1.57-.361-3.706-2.528-4.771s-4.55-.656-5.32.914c-.772 1.57.36 3.706 2.527 4.771m-8.724-6.728c.664 1.542 3.24 1.915 5.753.833s4.01-3.21 3.346-4.753c-.664-1.542-3.24-1.915-5.752-.833-2.513 1.083-4.012 3.21-3.347 4.753m167.934 255.61c3.048 2.026 6.529 2.151 7.774.279 1.244-1.872-.218-5.033-3.267-7.06s-6.529-2.152-7.774-.279c-1.244 1.872.218 5.033 3.267 7.06m14.056-48.116c.973 1.862 4.37 2.009 7.587.329 3.218-1.681 5.037-4.554 4.064-6.416s-4.37-2.01-7.587-.329c-3.218 1.681-5.037 4.553-4.064 6.416m-37.436 22.709c2.737.988 6.306-1.953 7.972-6.568 1.666-4.616.798-9.158-1.94-10.146s-6.306 1.953-7.972 6.568c-1.666 4.616-.798 9.158 1.94 10.146m14.399-29.357c1.666 1.911 5.726 1.098 9.069-1.816s4.704-6.825 3.038-8.736-5.725-1.098-9.069 1.816c-3.343 2.914-4.703 6.825-3.038 8.736m32.882 20.807c2.119.664 4.807-1.889 6.004-5.703s.448-7.445-1.672-8.11-4.807 1.888-6.004 5.702-.448 7.446 1.672 8.111M335.473 22.43c.91 1.742 4.089 1.88 7.101.306s4.715-4.261 3.805-6.004c-.911-1.742-4.09-1.88-7.102-.306-3.011 1.573-4.714 4.261-3.804 6.004m9.324 14.904c2.282.715 5.177-2.039 6.468-6.152 1.29-4.114.486-8.028-1.796-8.744s-5.178 2.038-6.468 6.152c-1.29 4.113-.486 8.028 1.796 8.744m-86.434 273.407c3.825 2.543 8.42 2.358 10.262-.413s.235-7.08-3.59-9.623-8.42-2.358-10.262.414c-1.843 2.771-.235 7.079 3.59 9.622M237.8 272.295c1.229.961 3.444.18 4.948-1.744s1.728-4.261.499-5.222c-1.228-.961-3.443-.18-4.948 1.743-1.504 1.924-1.727 4.262-.499 5.223m-67.235-6.413c1.231.963 3.451.182 4.957-1.745 1.507-1.927 1.73-4.269.498-5.232s-3.451-.182-4.957 1.744c-1.507 1.927-1.73 4.27-.498 5.233m58.677 44.292c2.101 2.585 5.146 3.591 6.801 2.246 1.654-1.345 1.292-4.531-.81-7.117-2.101-2.585-5.146-3.591-6.801-2.246-1.654 1.345-1.292 4.531.81 7.117m15.646-11.954c.654 2.341 3.807 3.506 7.042 2.602s5.328-3.534 4.674-5.874c-.654-2.341-3.806-3.506-7.042-2.602s-5.328 3.533-4.674 5.874M88.808 91.304c3.845 2.555 8.462 2.37 10.313-.414s.235-7.114-3.61-9.67-8.462-2.37-10.313.414c-1.85 2.785-.235 7.114 3.61 9.67M74.964 78.869c.697 2.497 4.06 3.74 7.512 2.776s5.684-3.77 4.986-6.267c-.697-2.497-4.06-3.74-7.512-2.776s-5.684 3.77-4.987 6.267m99.586 140.825c3.712 2.468 8.17 2.289 9.957-.398s.226-6.868-3.487-9.336-8.17-2.29-9.957.398-.226 6.867 3.487 9.336m-13.855-12.289c.685 2.453 3.987 3.674 7.375 2.727 3.388-.946 5.579-3.701 4.894-6.154s-3.987-3.673-7.375-2.727-5.579 3.702-4.894 6.154m123.149 4.462c3.767 2.504 8.292 2.322 10.107-.408s.231-6.972-3.536-9.477-8.292-2.322-10.107.408-.232 6.972 3.536 9.477m-13.378-12.477c.637 2.281 3.71 3.416 6.863 2.535s5.193-3.443 4.556-5.724-3.71-3.417-6.863-2.536-5.193 3.444-4.556 5.725m-16.637 24.714c3.844 2.556 8.462 2.371 10.313-.413 1.851-2.785.235-7.114-3.61-9.67s-8.462-2.371-10.313.414c-1.851 2.784-.235 7.113 3.61 9.669m-13.361-12.569c.642 2.3 3.74 3.444 6.92 2.556s5.236-3.472 4.593-5.771-3.74-3.444-6.919-2.556c-3.18.888-5.236 3.472-4.594 5.771m47.267-87.734c2.733 1.816 6.014 1.685 7.33-.294 1.315-1.978.166-5.055-2.567-6.872s-6.014-1.685-7.33.293c-1.315 1.979-.166 5.056 2.567 6.873m41.986 29.095c2.733 1.816 6.014 1.685 7.33-.294 1.315-1.978.166-5.055-2.567-6.872s-6.014-1.686-7.33.293-.166 5.056 2.567 6.873m-74.627 120.926c-.269 2.7.94 5.03 2.7 5.205 1.76.176 3.404-1.871 3.673-4.57s-.94-5.03-2.7-5.205-3.404 1.871-3.673 4.57m56.532-20.332c2 .985 4.199.61 4.912-.837s-.33-3.42-2.329-4.405-4.199-.61-4.912.837.33 3.42 2.329 4.405"/><path d="M168.35 200.48c1.512.894 3.873-.303 5.272-2.672s1.307-5.014-.205-5.907c-1.513-.894-3.874.303-5.273 2.672s-1.307 5.014.206 5.907m9.859-17.867c.804 1.54 3.617 1.66 6.282.268 2.665-1.393 4.173-3.77 3.369-5.31-.805-1.54-3.618-1.66-6.283-.267s-4.173 3.769-3.368 5.309m-13.081-1.435c1.415 1.107 3.966.207 5.699-2.01s1.992-4.909.577-6.015c-1.414-1.106-3.966-.206-5.699 2.01s-1.991 4.909-.577 6.015m-83.985 34.625c4.56 2.241 9.703 1.115 11.486-2.515s-.468-8.388-5.029-10.628c-4.56-2.241-9.702-1.115-11.486 2.515-1.783 3.629.468 8.388 5.029 10.628m5.869 11.913c1.314 1.028 3.683.193 5.292-1.865 1.61-2.058 1.849-4.559.535-5.586s-3.683-.192-5.293 1.865c-1.609 2.058-1.848 4.559-.534 5.586m61.641-47.373c-.263 2.638.92 4.915 2.641 5.087s3.33-1.828 3.592-4.466c.263-2.638-.92-4.915-2.641-5.087s-3.33 1.828-3.592 4.466m184.587 16.602c.989 1.41 3.765 1.168 6.202-.541 2.437-1.708 3.611-4.236 2.622-5.646-.988-1.41-3.765-1.168-6.202.54-2.437 1.709-3.61 4.237-2.622 5.647m-37.546 2.482c1.015 1.448 3.87 1.197 6.376-.56s3.716-4.356 2.7-5.804c-1.015-1.448-3.87-1.197-6.376.56s-3.715 4.356-2.7 5.804m-118.611-48.934c-.614 3.496.461 6.605 2.401 6.946s4.011-2.216 4.625-5.711-.461-6.605-2.401-6.946-4.011 2.216-4.625 5.711m149.626 47.347c1.489.88 3.812-.295 5.187-2.624s1.283-4.931-.206-5.81c-1.489-.88-3.812.295-5.188 2.624s-1.283 4.931.207 5.81m-30.8-15.985c.124 4.015 2.348 7.204 4.966 7.123s4.641-3.401 4.516-7.416c-.124-4.015-2.348-7.204-4.966-7.123s-4.641 3.401-4.516 7.416m16.392 92.092c3.677 2.444 7.876 2.594 9.378.335s-.262-6.072-3.939-8.516-7.875-2.595-9.377-.336.261 6.072 3.938 8.517m17.036-59.634c.776 1.486 3.488 1.602 6.057.259s4.023-3.634 3.247-5.119-3.488-1.601-6.057-.259-4.023 3.634-3.247 5.119m-42.53-113.156c.326 1.769 1.473 3.042 2.561 2.841 1.089-.2 1.707-1.798 1.381-3.567s-1.473-3.042-2.561-2.842-1.707 1.798-1.381 3.568m38.062 141.695c1.976.62 4.482-1.763 5.599-5.323 1.116-3.559.42-6.947-1.555-7.567-1.976-.62-4.482 1.764-5.599 5.323s-.42 6.948 1.555 7.567"/><path d="M325.066 248.59c1.946 1.294 4.285 1.199 5.223-.212.939-1.412.121-3.605-1.825-4.899-1.947-1.294-4.285-1.199-5.224.213-.938 1.411-.121 3.604 1.826 4.898m-33.609-26.325c1.341 1.049 3.76.197 5.403-1.903s1.886-4.654.545-5.703-3.76-.196-5.403 1.904-1.886 4.654-.545 5.702m85.346-88.383c1.409 1.101 3.948.207 5.671-1.997s1.979-4.883.571-5.985c-1.409-1.101-3.947-.207-5.671 1.997s-1.979 4.883-.571 5.985m-91.254 124.405c2.346 2.885 5.744 4.008 7.591 2.507s1.443-5.058-.903-7.944c-2.346-2.885-5.744-4.008-7.591-2.507s-1.443 5.058.903 7.944m10.422 16.805c2.282 1.517 5.11 1.276 6.316-.538s.334-4.515-1.948-6.032-5.109-1.276-6.315.539-.334 4.515 1.947 6.031m15.979-52.994c-.523 5.256 1.831 9.794 5.258 10.135s6.63-3.643 7.153-8.9c.524-5.256-1.831-9.794-5.258-10.135s-6.63 3.643-7.153 8.9m26.46 9.821c1.147.414 2.641-.815 3.337-2.744s.331-3.829-.816-4.243c-1.146-.413-2.64.815-3.336 2.744-.697 1.93-.332 3.829.815 4.243m3.038-17.675c1.35 1.056 3.786.197 5.44-1.919s1.901-4.687.551-5.743-3.787-.197-5.441 1.919-1.901 4.687-.55 5.743m.171 29.632c2.062 2.538 5.049 3.526 6.671 2.208s1.264-4.443-.799-6.981c-2.062-2.537-5.049-3.526-6.671-2.208s-1.264 4.444.799 6.981m-83.037 11.702c2.076 1.38 4.647 1.161 5.744-.489s.304-4.106-1.772-5.486-4.647-1.161-5.744.489-.303 4.106 1.772 5.486m84.386-23.566c.734 2.628 4.272 3.936 7.902 2.922s5.979-3.966 5.245-6.594-4.272-3.936-7.902-2.922-5.979 3.966-5.245 6.594M158.004 109.125c1.96 1.303 4.314 1.207 5.259-.214s.122-3.63-1.837-4.932-4.314-1.207-5.259.215c-.944 1.421-.122 3.629 1.837 4.931m20.436-20.074c1.216.44 2.801-.867 3.541-2.916s.354-4.066-.862-4.505-2.801.867-3.541 2.916-.353 4.066.862 4.505m3.268 11.733c2.065 2.541 5.056 3.53 6.681 2.209s1.268-4.45-.797-6.99-5.056-3.53-6.681-2.21-1.268 4.45.797 6.991m1.073-11.795c.764 2.736 4.45 4.097 8.233 3.04 3.784-1.056 6.231-4.13 5.467-6.866s-4.45-4.097-8.234-3.04c-3.783 1.056-6.23 4.13-5.466 6.866m137.84 19.834c2.505 1.147 5.821-.729 7.407-4.192 1.585-3.462.84-7.198-1.665-8.346s-5.822.73-7.407 4.192-.84 7.199 1.665 8.346m-42.566 54.532c1.216.438 2.801-.867 3.541-2.917s.354-4.066-.862-4.505-2.801.867-3.541 2.916-.353 4.067.862 4.506m-2.198-11.552c2.165 2.664 5.301 3.701 7.003 2.317 1.703-1.384 1.328-4.665-.837-7.328s-5.3-3.701-7.003-2.317-1.328 4.665.837 7.328m.429-11.268c.779 2.788 4.534 4.175 8.388 3.099s6.347-4.209 5.568-6.997c-.778-2.788-4.534-4.175-8.388-3.099s-6.347 4.209-5.568 6.997m30.27 8.401c.768 2.75 4.473 4.12 8.275 3.058 3.801-1.062 6.261-4.153 5.492-6.903-.768-2.751-4.473-4.12-8.274-3.058-3.802 1.061-6.261 4.152-5.493 6.903m60.196 54.444c-.284 2.846.991 5.302 2.847 5.487s3.591-1.972 3.874-4.818-.992-5.302-2.848-5.487-3.59 1.972-3.873 4.818M237.402 40.767c1.775.32 3.636-1.76 4.158-4.646s-.494-5.486-2.269-5.807c-1.774-.32-3.636 1.76-4.158 4.646-.521 2.886.494 5.486 2.269 5.807m12.196 46.003c.733 1.74 3.623 2.185 6.455.992 2.831-1.192 4.533-3.57 3.8-5.31s-3.623-2.185-6.454-.992c-2.832 1.192-4.534 3.57-3.801 5.31m-.156 24.697c-.437 4.183 1.171 7.78 3.592 8.033s4.738-2.934 5.175-7.117c.437-4.184-1.171-7.781-3.592-8.034s-4.738 2.934-5.175 7.118m60.872 52.679c.674 1.601 3.011 2.146 5.219 1.216 2.207-.93 3.45-2.981 2.776-4.583-.674-1.601-3.011-2.146-5.218-1.216-2.208.929-3.451 2.981-2.777 4.583m-43.468-84.982c.817 2.452 2.75 4.017 4.318 3.495s2.176-2.934 1.359-5.386-2.75-4.018-4.318-3.495-2.176 2.933-1.359 5.386m-61.611-25.707c.808 1.92 3.417 2.652 5.828 1.636 2.411-1.015 3.711-3.393 2.903-5.312s-3.417-2.651-5.828-1.636-3.711 3.393-2.903 5.312m-24.882 61.199c.683 1.629 3.39 2.046 6.044.931 2.655-1.114 4.253-3.337 3.569-4.966-.683-1.628-3.389-2.045-6.044-.931-2.655 1.115-4.253 3.338-3.569 4.966m2.439 50.999c2.421 2.985 5.725 4.316 7.382 2.973 1.656-1.343 1.037-4.851-1.384-7.836s-5.724-4.316-7.381-2.973c-1.656 1.342-1.037 4.851 1.383 7.836m33.037-45.69c3.587 1.531 7.181 1.168 8.025-.811.845-1.978-1.379-4.824-4.966-6.355s-7.181-1.169-8.026.81 1.379 4.824 4.967 6.356m119.54 50.297c1.286 3.064 5.757 4.109 9.987 2.334 4.229-1.775 6.615-5.699 5.329-8.763s-5.758-4.109-9.987-2.334c-4.23 1.775-6.616 5.699-5.329 8.763M203.46 102.673c.209 2.146 3.097 3.621 6.452 3.294s5.906-2.33 5.697-4.475-3.097-3.62-6.452-3.294-5.906 2.33-5.697 4.475m1.271 13.211c1.72.557 3.737-.917 4.506-3.291.769-2.375-.001-4.751-1.721-5.308-1.719-.557-3.736.917-4.505 3.291-.769 2.375.001 4.751 1.72 5.308m123.039 54.021c1.918.621 4.169-1.024 5.027-3.675s0-5.303-1.918-5.924-4.169 1.024-5.028 3.674c-.858 2.651.001 5.304 1.919 5.925m42.346 22.864c1.94.629 4.217-1.035 5.085-3.715s-.001-5.362-1.941-5.99-4.217 1.034-5.085 3.715.001 5.362 1.941 5.99M180.603 48.412c1.005 2.395 4.983 3.008 8.884 1.37s6.25-4.906 5.245-7.3-4.983-3.008-8.884-1.37-6.25 4.906-5.245 7.3m72.855 93.767c1.671.399 3.585-1.621 4.275-4.512s-.105-5.558-1.776-5.957-3.586 1.621-4.276 4.512.106 5.558 1.777 5.957m7.01 28.88c2.363 1.395 4.918 1.443 5.707.107s-.487-3.551-2.849-4.946-4.917-1.443-5.707-.107c-.789 1.336.487 3.551 2.849 4.946m75.35-103.349c2.977 1.611 6.849.225 8.647-3.096s.841-7.321-2.137-8.933-6.849-.226-8.647 3.096-.841 7.32 2.137 8.933m-75.065 94.731c2.055 3.343 5.225 5.128 7.081 3.988s1.696-4.776-.359-8.119-5.225-5.129-7.081-3.988-1.696 4.776.359 8.119M241.134 81.56c2.077 3.38 5.281 5.184 7.157 4.031s1.713-4.827-.364-8.206c-2.076-3.38-5.281-5.185-7.157-4.032s-1.713 4.828.364 8.207m38.599 92.072c.459 1.668 2.697 2.507 4.999 1.874s3.797-2.498 3.338-4.166c-.458-1.668-2.697-2.507-4.999-1.874s-3.797 2.499-3.338 4.166m-36.354-14.692c1.993 2.114 4.728 2.774 6.108 1.473s.882-4.069-1.112-6.184c-1.994-2.114-4.729-2.774-6.108-1.473-1.38 1.301-.882 4.069 1.112 6.184m55.199 13.546c1.681.536 3.753-1.25 4.627-3.989s.219-5.395-1.462-5.931-3.752 1.25-4.626 3.989-.22 5.394 1.461 5.931m15.771 10.288c1.763.562 3.934-1.31 4.85-4.182.917-2.872.231-5.656-1.531-6.218s-3.934 1.31-4.85 4.182c-.917 2.872-.231 5.656 1.531 6.218m-175.433-24.325c.12 3.88 2.271 6.961 4.805 6.883s4.49-3.287 4.37-7.167-2.272-6.961-4.805-6.882c-2.534.078-4.49 3.287-4.37 7.166m54.586 36.92c.115 4.221 2.442 7.582 5.197 7.506s4.894-3.558 4.779-7.78c-.116-4.221-2.443-7.582-5.198-7.506s-4.894 3.558-4.778 7.78m11.277 10.903c1.615.515 3.603-1.195 4.441-3.82s.207-5.171-1.408-5.686-3.603 1.195-4.44 3.82-.208 5.171 1.407 5.686m-53.452-130.67c.124 4.027 2.355 7.225 4.981 7.144 2.626-.082 4.654-3.412 4.53-7.438-.125-4.027-2.355-7.225-4.982-7.144-2.626.082-4.654 3.412-4.529 7.438m4.518-8.524c1.663.53 3.711-1.233 4.574-3.94s.215-5.33-1.447-5.86-3.711 1.233-4.574 3.94c-.864 2.706-.216 5.33 1.447 5.86M10.89 178.998c1.876 1.114 4.783-.316 6.492-3.195s1.572-6.115-.305-7.229c-1.876-1.114-4.783.316-6.492 3.195s-1.572 6.115.305 7.229m6.685-10.591c.913 1.093 3.093.778 4.87-.705 1.776-1.483 2.477-3.571 1.564-4.664-.912-1.094-3.092-.778-4.869.704-1.777 1.483-2.477 3.572-1.565 4.665m268.647-70.656c1.769.422 3.795-1.713 4.524-4.77s-.113-5.876-1.882-6.298c-1.769-.423-3.795 1.713-4.524 4.77s.113 5.876 1.882 6.298m15.947 5.008c1.909 3.105 4.854 4.764 6.579 3.704 1.724-1.059 1.574-4.436-.334-7.542s-4.854-4.764-6.579-3.705-1.574 4.437.334 7.543m-47.521 23.225c.472 2.435 2.118 4.164 3.675 3.862 1.558-.302 2.438-2.521 1.966-4.956s-2.118-4.164-3.676-3.862c-1.557.302-2.437 2.521-1.965 4.956m30.504 28.296c-.076 2.258 2.726 4.185 6.257 4.302 3.532.118 6.455-1.618 6.53-3.877s-2.726-4.185-6.258-4.302c-3.531-.118-6.454 1.618-6.529 3.877m-184.289-14.778c1.121.404 2.583-.799 3.265-2.688s.326-3.749-.796-4.154c-1.121-.404-2.582.799-3.264 2.688s-.326 3.749.795 4.154m-2.379-11.205c2.214 2.724 5.421 3.784 7.163 2.368s1.359-4.771-.855-7.495c-2.214-2.723-5.42-3.784-7.163-2.368-1.741 1.416-1.359 4.771.855 7.495m9.412 2.397c-.074 2.239 2.703 4.149 6.203 4.265 3.501.117 6.399-1.604 6.473-3.843.075-2.24-2.703-4.15-6.203-4.266-3.5-.117-6.398 1.604-6.473 3.844m181.158 115.99c1.209.436 2.785-.863 3.52-2.901.736-2.039.353-4.045-.856-4.481-1.208-.436-2.784.863-3.52 2.901-.736 2.039-.352 4.045.856 4.481m-2.343-11.417c2.257 2.778 5.529 3.859 7.307 2.414 1.777-1.445 1.388-4.869-.87-7.646s-5.529-3.858-7.307-2.413c-1.777 1.445-1.388 4.868.87 7.645m9.456 2.365c-.075 2.247 2.712 4.163 6.224 4.28s6.419-1.61 6.494-3.857-2.712-4.164-6.224-4.28-6.419 1.61-6.494 3.857M80.84 156.401c2.096 2.58 5.133 3.585 6.781 2.245 1.649-1.34 1.286-4.518-.811-7.097s-5.133-3.585-6.782-2.245c-1.648 1.34-1.285 4.518.812 7.097m.773-11.312c.73 2.613 4.25 3.913 7.861 2.904 3.612-1.008 5.948-3.944 5.218-6.557s-4.249-3.913-7.86-2.904-5.948 3.944-5.219 6.557m-11.581 18.092c1.95 3.172 4.957 4.866 6.717 3.784s1.608-4.531-.341-7.702-4.957-4.866-6.718-3.784c-1.76 1.082-1.607 4.53.342 7.702m19.928-4.249c-.075 2.282 2.757 4.228 6.327 4.347s6.526-1.635 6.602-3.917c.075-2.282-2.757-4.228-6.327-4.347-3.57-.118-6.525 1.635-6.601 3.917m207.119-22.588c2.443 1.16 5.724-.637 7.327-4.014s.922-7.056-1.522-8.216-5.724.637-7.327 4.015-.922 7.055 1.522 8.215m-18.653-22.485c1.744 1.85 4.138 2.427 5.345 1.288 1.208-1.139.774-3.562-.97-5.412-1.745-1.85-4.138-2.426-5.346-1.287-1.208 1.138-.773 3.561.971 5.411m86.706-72.08c1.698.307 3.48-1.686 3.98-4.45.499-2.765-.472-5.255-2.171-5.562s-3.48 1.685-3.98 4.45.472 5.255 2.171 5.562M346.736 56.4c.615 1.462 3.043 1.835 5.422.834 2.379-1.002 3.808-3 3.192-4.462s-3.043-1.836-5.422-.834-3.808 3-3.192 4.462m43.769 51.162c-.316 3.021.845 5.618 2.592 5.801s3.42-2.119 3.736-5.14c.315-3.021-.845-5.619-2.593-5.801s-3.42 2.118-3.735 5.14m-13.432-17.661c3.47 1.482 6.944 1.133 7.76-.778s-1.336-4.662-4.806-6.143-6.945-1.133-7.761.779c-.815 1.91 1.336 4.661 4.807 6.142m-12.048-29.923c2.165 2.914 5.322 4.234 7.053 2.949s1.378-4.69-.786-7.604c-2.165-2.914-5.322-4.234-7.053-2.949s-1.378 4.69.786 7.604m-4.019 28.365c2.258.866 4.873-.477 5.839-3 .966-2.522-.081-5.268-2.339-6.134-2.259-.865-4.873.478-5.84 3s.081 5.269 2.34 6.134m17.833 14.194c2.42 2.985 5.725 4.316 7.381 2.973s1.037-4.851-1.383-7.836-5.725-4.316-7.381-2.973-1.037 4.851 1.383 7.836"/><path d="M353.917 78.974c.672 1.594 3 2.135 5.2 1.209 2.201-.927 3.441-2.97 2.769-4.565-.671-1.594-2.999-2.135-5.2-1.209-2.2.927-3.44 2.97-2.769 4.565m-64.958-13.522c.635 1.509 2.839 2.02 4.922 1.144s3.256-2.811 2.621-4.32-2.839-2.02-4.922-1.144-3.256 2.811-2.621 4.32m64.635 113.505c.861 2.585 2.899 4.234 4.551 3.684 1.652-.551 2.293-3.092 1.432-5.677s-2.898-4.234-4.55-3.684c-1.652.551-2.294 3.092-1.433 5.677m20.962-130.278c.227 2.334 3.368 3.938 7.015 3.584 3.648-.355 6.421-2.535 6.194-4.869s-3.368-3.938-7.016-3.584c-3.647.355-6.42 2.535-6.193 4.869M371.261 74.8c2.79.905 6.066-1.49 7.315-5.349s.001-7.718-2.79-8.622-6.066 1.491-7.316 5.35 0 7.718 2.791 8.622m27.789 27.054c3.768 3.077 8.45 3.578 10.457 1.12s.58-6.944-3.188-10.02c-3.768-3.078-8.449-3.58-10.456-1.121-2.008 2.457-.58 6.944 3.187 10.021m-185.571 141.19c1.144 2.192 3.359 3.297 4.948 2.468 1.588-.829 1.948-3.278.804-5.471-1.145-2.192-3.36-3.297-4.948-2.468s-1.948 3.279-.804 5.471m-5.367-9.385c1.925 2.748 4.852 4.018 6.538 2.837 1.687-1.182 1.493-4.367-.432-7.115s-4.853-4.018-6.539-2.836-1.493 4.366.433 7.114m152.34-78.676c-.336 3.222.901 5.991 2.764 6.186 1.863.194 3.646-2.259 3.982-5.481s-.9-5.991-2.763-6.185c-1.863-.195-3.646 2.259-3.983 5.48m-9.248-25.139c3.488 1.489 7.057.959 7.972-1.184s-1.172-5.086-4.66-6.575c-3.487-1.489-7.056-.959-7.971 1.184s1.172 5.086 4.659 6.575m-5.705 16.686c3.434 4.235 8.126 6.122 10.48 4.214 2.354-1.909 1.478-6.889-1.956-11.125s-8.126-6.121-10.48-4.213c-2.353 1.908-1.478 6.889 1.956 11.124M167.577 70.84c.995 2.37 4.93 2.977 8.789 1.358 3.859-1.62 6.181-4.854 5.186-7.224s-4.929-2.977-8.788-1.358c-3.859 1.62-6.181 4.854-5.187 7.224m208.766 50.83c.846 2.54 2.848 4.162 4.471 3.621s2.252-3.039 1.406-5.579c-.847-2.541-2.848-4.162-4.471-3.622-1.623.541-2.252 3.039-1.406 5.58m-27.326-22.444c.229 2.357 3.403 3.977 7.089 3.619 3.686-.359 6.489-2.56 6.259-4.918s-3.403-3.977-7.089-3.619c-3.686.359-6.488 2.56-6.259 4.918m-221.244 34.367c1.39 1.087 3.899.201 5.604-1.978 1.704-2.18 1.959-4.828.569-5.915s-3.899-.201-5.603 1.978c-1.705 2.18-1.96 4.828-.57 5.915m15.75 6.241c2.32.889 5.005-.49 5.998-3.081s-.083-5.412-2.403-6.301-5.005.491-5.998 3.081c-.993 2.591.083 5.413 2.403 6.301"/><path d="M136.563 130.31c.655 1.555 2.927 2.082 5.074 1.178s3.356-2.897 2.702-4.452c-.655-1.555-2.926-2.083-5.073-1.179s-3.357 2.898-2.703 4.453m189.895-36.285c.708 1.68 2.993 2.32 5.104 1.432 2.112-.89 3.25-2.972 2.542-4.652-.707-1.68-2.992-2.32-5.103-1.431-2.112.889-3.25 2.971-2.543 4.65m-204.38 17.478c.741 3.751 3.539 6.358 6.249 5.822 2.711-.535 4.308-4.01 3.567-7.761s-3.539-6.358-6.25-5.822-4.307 4.01-3.566 7.761m2.202-9.469c1.635.997 3.977.14 5.23-1.915 1.254-2.054.945-4.529-.691-5.527-1.635-.997-3.977-.14-5.23 1.915s-.945 4.529.691 5.527m220.276 13.649c1.73.56 3.76-.923 4.534-3.312s-.001-4.781-1.732-5.341c-1.73-.56-3.76.922-4.534 3.312s.002 4.78 1.732 5.341m22.342 22.038c2.08 1.699 4.665 1.975 5.774.617 1.109-1.357.321-3.835-1.759-5.534s-4.665-1.975-5.774-.617-.322 3.835 1.759 5.534m5.497 17.85c2.431.58 5.215-2.355 6.218-6.556 1.003-4.2-.156-8.076-2.587-8.657s-5.216 2.355-6.219 6.556c-1.002 4.2.156 8.076 2.588 8.657m7.565 11.541c.007 5.72 2.661 10.353 5.927 10.348s5.908-4.644 5.901-10.364c-.008-5.719-2.662-10.352-5.928-10.348s-5.908 4.644-5.9 10.364M216.203 91.779c-.311 2.979.834 5.54 2.559 5.72 1.724.18 3.374-2.089 3.686-5.068s-.835-5.54-2.559-5.72-3.374 2.088-3.686 5.068m-13.88-6.449c3.79 4.674 8.965 6.758 11.559 4.655s1.625-7.597-2.165-12.272-8.965-6.758-11.559-4.655-1.625 7.598 2.165 12.272m25.578 6.961c2.42.578 5.192-2.344 6.19-6.526s-.155-8.04-2.575-8.618-5.192 2.344-6.19 6.526.155 8.04 2.575 8.618m7.533 11.588c.007 5.735 2.671 10.381 5.948 10.377s5.929-4.657 5.922-10.392-2.671-10.381-5.949-10.377c-3.277.005-5.928 4.657-5.921 10.392M368.82 170c.561 2.892 2.512 4.945 4.358 4.587 1.847-.358 2.889-2.992 2.328-5.883s-2.512-4.945-4.358-4.587-2.889 2.992-2.328 5.883m-40.042-32.875c2.656 1.308 5.46 1.046 6.264-.585s-.697-4.015-3.353-5.324c-2.656-1.308-5.46-1.046-6.264.586s.698 4.015 3.353 5.323m72.249-80.561c.882 2.047 4.299 2.543 7.633 1.107s5.321-4.26 4.439-6.307-4.299-2.543-7.633-1.107-5.321 4.26-4.439 6.307m34.24-2.706c2.417 1.607 5.177 1.705 6.164.22s-.171-3.993-2.588-5.6-5.177-1.705-6.164-.22.171 3.993 2.588 5.6m-31.674-15.226c2.182 2.685 5.343 3.73 7.061 2.334 1.718-1.397 1.341-4.705-.841-7.39s-5.343-3.729-7.061-2.333c-1.718 1.397-1.341 4.705.841 7.39m19.748 28.203c3.974 2.642 8.628 2.628 10.395-.03 1.768-2.66-.021-6.956-3.994-9.598s-8.628-2.628-10.395.031c-1.768 2.659.021 6.956 3.994 9.597m-187.468 90.498c2.122 1.042 4.515.519 5.344-1.169s-.219-3.902-2.341-4.944c-2.122-1.043-4.515-.52-5.344 1.168s.219 3.902 2.341 4.945"/><path d="M222.224 159.182c3.958 2.631 8.593 2.617 10.355-.033 1.761-2.649-.02-6.929-3.977-9.56-3.958-2.631-8.594-2.616-10.355.033s.02 6.93 3.977 9.56M422.38 37.62c.477 1.707 2.776 2.556 5.135 1.898 2.359-.66 3.885-2.578 3.409-4.285-.477-1.707-2.776-2.556-5.135-1.897s-3.886 2.577-3.409 4.284m-98.464 87.68c.49 2.531 2.197 4.328 3.812 4.015s2.525-2.618 2.035-5.148c-.491-2.531-2.198-4.328-3.812-4.015-1.615.313-2.526 2.618-2.035 5.148m72.57-.697c1.94 2.058 4.602 2.7 5.945 1.434 1.344-1.267.859-3.962-1.081-6.02-1.941-2.058-4.603-2.7-5.946-1.434s-.859 3.962 1.082 6.02M257.435 37.677c-.348 3.337.933 6.206 2.862 6.407 1.93.202 3.776-2.34 4.124-5.678.349-3.337-.933-6.206-2.862-6.408s-3.775 2.341-4.124 5.678m-25.283-12.677c2.603 3.21 6.158 4.64 7.94 3.196 1.783-1.446 1.118-5.22-1.485-8.43s-6.158-4.642-7.941-3.196c-1.782 1.445-1.117 5.22 1.486 8.43m34.24-.936c.814 2.441 2.738 4 4.298 3.48s2.166-2.921 1.353-5.363c-.813-2.441-2.738-3.999-4.298-3.48s-2.166 2.921-1.353 5.363m-14.744-3.068c2.221 1.814 4.98 2.11 6.162.663 1.183-1.448.341-4.092-1.881-5.906-2.221-1.813-4.98-2.11-6.162-.662s-.34 4.092 1.881 5.905m63.702 51.502c.51 1.854 3.373 2.684 6.396 1.853s5.059-3.008 4.549-4.863c-.51-1.854-3.373-2.684-6.396-1.853s-5.059 3.008-4.549 4.863m-39.881-41.88c1.686.403 3.617-1.633 4.312-4.546s-.108-5.602-1.794-6.004c-1.686-.403-3.617 1.633-4.313 4.546s.108 5.602 1.795 6.004m-4.794 29.78c2.312 4.148 6.185 6.396 8.648 5.022s2.587-5.85.275-9.997-6.185-6.395-8.649-5.021-2.587 5.85-.274 9.996m35.292 15.226c2.375 1.285 5.897-.622 7.867-4.26s1.639-7.63-.736-8.915c-2.376-1.286-5.898.62-7.867 4.259-1.969 3.638-1.64 7.63.736 8.916m99.843 3.317c.491 1.787 3.249 2.587 6.16 1.787s4.871-2.898 4.38-4.686-3.25-2.587-6.16-1.787-4.871 2.898-4.38 4.685m-9.434 2.902c2.276 1.233 5.653-.596 7.541-4.085s1.573-7.315-.704-8.547-5.653.596-7.541 4.085-1.573 7.315.704 8.547m-98.22-46.762c1.884 3.066 4.791 4.704 6.492 3.658 1.702-1.045 1.553-4.378-.331-7.445-1.885-3.066-4.792-4.704-6.493-3.658s-1.553 4.379.332 7.445m7.836 16.391c.919 3.343 5.406 5.025 10.022 3.756s7.612-5.009 6.693-8.352-5.407-5.025-10.022-3.755c-4.616 1.269-7.612 5.008-6.693 8.351m-41.269-6.057c.583 3.005 2.611 5.14 4.529 4.768 1.919-.372 3.002-3.11 2.419-6.115s-2.611-5.14-4.529-4.768c-1.919.372-3.001 3.11-2.419 6.115m22.619 29.71c-.074 2.224 2.681 4.12 6.154 4.236 3.474.115 6.349-1.594 6.423-3.818s-2.682-4.12-6.155-4.236-6.349 1.594-6.422 3.818m17.471 15.417c.952 3.463 5.254 5.3 9.608 4.102s7.113-4.974 6.161-8.437-5.254-5.3-9.609-4.102c-4.354 1.197-7.112 4.975-6.16 8.438M106.155 115.18c.503 1.829 3.324 2.647 6.302 1.828s4.984-2.964 4.481-4.793c-.503-1.828-3.324-2.647-6.302-1.828s-4.984 2.965-4.481 4.793m-9.433 3.109c2.356 1.275 5.848-.616 7.8-4.224 1.953-3.607 1.627-7.565-.729-8.84s-5.847.617-7.8 4.224-1.626 7.566.73 8.84m7.967 31.985c.939 3.418 5.183 5.232 9.478 4.051 4.294-1.181 7.014-4.909 6.074-8.327s-5.183-5.232-9.478-4.051-7.014 4.909-6.074 8.327"/><path d="M288.814 41.848c3.297 3.498 7.818 4.59 10.099 2.439s1.457-6.729-1.84-10.226-7.819-4.588-10.1-2.438-1.457 6.728 1.841 10.225m46.653 10.436c1.652.527 3.686-1.225 4.543-3.913s.214-5.293-1.438-5.82-3.686 1.224-4.543 3.912-.214 5.294 1.438 5.82m-91.099-43.45c2.144 3.489 5.453 5.35 7.392 4.159 1.939-1.192 1.772-4.985-.372-8.473-2.143-3.489-5.453-5.35-7.391-4.159-1.939 1.192-1.773 4.985.371 8.473m71.93 22.804c-.074 2.216 2.679 4.106 6.148 4.221s6.342-1.587 6.415-3.803-2.679-4.107-6.148-4.222-6.341 1.588-6.415 3.804m29.793 9.827c.495 1.798 2.729 2.752 4.99 2.13s3.693-2.584 3.199-4.382c-.495-1.799-2.729-2.753-4.99-2.13-2.261.621-3.693 2.583-3.199 4.382M259.94 97.383c1.005 3.657 5.544 5.597 10.137 4.334s7.502-5.251 6.497-8.908c-1.006-3.656-5.545-5.597-10.138-4.334s-7.502 5.251-6.496 8.908m-81.577 35.266c-.453 4.33 1.212 8.053 3.717 8.315s4.904-3.037 5.356-7.367c.453-4.33-1.212-8.052-3.717-8.314s-4.904 3.036-5.356 7.366m6.577-8.356c2.005 1.637 4.496 1.905 5.563.598s.307-3.693-1.699-5.331c-2.005-1.637-4.496-1.905-5.563-.599s-.307 3.694 1.699 5.332m11.485 180.225c-.305 2.925.82 5.44 2.513 5.617s3.314-2.051 3.62-4.976c.306-2.926-.819-5.44-2.513-5.617s-3.314 2.051-3.62 4.976m69.805-173.747c.186 1.825 1.245 3.212 2.365 3.098s1.878-1.686 1.692-3.511-1.244-3.212-2.365-3.098c-1.12.114-1.878 1.686-1.692 3.511m4.079-3.637c1.635.306 3.39-1.738 3.918-4.564s-.37-5.366-2.006-5.671-3.39 1.737-3.918 4.564.37 5.365 2.006 5.671m82.74 69.78c.544 1.95 3.161 2.922 5.845 2.173s4.417-2.938 3.873-4.887c-.545-1.949-3.161-2.922-5.845-2.172-2.684.749-4.418 2.937-3.873 4.886"/><path d="M345.728 201.449c2.662.862 5.785-1.421 6.976-5.099s-.001-7.358-2.663-8.22-5.785 1.421-6.976 5.099.001 7.358 2.663 8.22m-145.717-69.065c2.752 1.23 5.561.936 6.273-.658.712-1.593-.941-3.882-3.694-5.112-2.752-1.23-5.56-.936-6.272.657-.713 1.594.941 3.883 3.693 5.113m7.793 17.916c1.942 1.844 4.603 2.194 5.943.783s.853-4.051-1.089-5.895-4.603-2.194-5.944-.783c-1.34 1.412-.852 4.051 1.09 5.895m-8.931-9.984c.632 2.75 4.223 4.271 8.021 3.399s6.365-3.808 5.733-6.558c-.631-2.749-4.222-4.271-8.02-3.399s-6.365 3.808-5.734 6.558m50.061 53.368c.566 2.024 3.278 3.035 6.058 2.258 2.781-.776 4.577-3.046 4.011-5.07s-3.277-3.035-6.058-2.259-4.576 3.047-4.011 5.071m11.853 3.752c1.805 1.915 4.282 2.511 5.532 1.333s.801-3.687-1.005-5.602c-1.805-1.914-4.282-2.511-5.532-1.332s-.8 3.686 1.005 5.601M378.903 29.425c3.816 2.537 8.399 2.351 10.237-.414s.235-7.063-3.58-9.6-8.399-2.35-10.238.414c-1.838 2.765-.235 7.063 3.581 9.6m-13.534-12.493c.661 2.366 3.847 3.545 7.116 2.632s5.383-3.572 4.722-5.938c-.661-2.367-3.847-3.546-7.116-2.633s-5.383 3.572-4.722 5.939m-58.09 106.246c1.816 1.926 4.306 2.527 5.561 1.343 1.256-1.184.802-3.705-1.014-5.631-1.815-1.926-4.305-2.527-5.561-1.343s-.802 3.705 1.014 5.631m-68.946-62.67c.649 2.322 3.764 3.481 6.958 2.59 3.194-.893 5.258-3.499 4.609-5.82-.648-2.323-3.763-3.482-6.958-2.59-3.194.892-5.257 3.498-4.609 5.82"/><path d="M230.282 65.817c3.081.998 6.697-1.646 8.077-5.906s0-8.521-3.082-9.52c-3.081-.997-6.698 1.647-8.077 5.906-1.38 4.26 0 8.522 3.082 9.52m22.603-.583c2.198 2.331 5.213 3.06 6.733 1.626 1.521-1.434.972-4.486-1.227-6.817s-5.212-3.06-6.733-1.626c-1.52 1.433-.971 4.486 1.227 6.817M111.348 190.902c1.649.298 3.379-1.637 3.864-4.321.485-2.685-.458-5.103-2.107-5.401s-3.379 1.637-3.864 4.321c-.485 2.685.458 5.103 2.107 5.401m-16.221 16.984c.673 1.598 3.326 2.006 5.926.911s4.162-3.278 3.489-4.876c-.672-1.597-3.325-2.005-5.925-.91s-4.163 3.277-3.49 4.875m40.462 20.12c-.299 2.852.798 5.304 2.45 5.476 1.651.173 3.231-1.999 3.529-4.851s-.799-5.304-2.45-5.477c-1.651-.172-3.231 2-3.529 4.852m17.017 11.394c.591 4.473 3.141 7.826 5.696 7.488 2.556-.337 4.148-4.237 3.557-8.71s-3.141-7.827-5.696-7.489c-2.556.337-4.148 4.237-3.557 8.711m-8.416-28.757c3.894 1.662 7.793 1.27 8.709-.876s-1.497-5.234-5.391-6.896-7.793-1.269-8.709.877 1.498 5.233 5.391 6.895m-39.169 17.391c.612 1.452 2.732 1.944 4.736 1.1 2.005-.844 3.134-2.705 2.523-4.156-.611-1.452-2.732-1.945-4.736-1.101s-3.134 2.705-2.523 4.157M43.3 208.43c.644 1.53 2.878 2.049 4.99 1.16s3.3-2.85 2.656-4.38-2.878-2.05-4.99-1.161c-2.11.89-3.3 2.851-2.656 4.381m109.186 15.221c.874 2.625 2.943 4.3 4.621 3.741s2.329-3.14 1.455-5.765c-.875-2.626-2.944-4.3-4.622-3.742-1.678.559-2.329 3.141-1.454 5.766m-13.25-111.822c.559 4.235 2.975 7.41 5.396 7.09s3.93-4.013 3.37-8.248c-.559-4.236-2.975-7.41-5.396-7.09s-3.93 4.012-3.37 8.248m-.67-16.559c1.007 3.022 3.388 4.95 5.319 4.306 1.932-.643 2.681-3.614 1.675-6.636-1.007-3.021-3.389-4.95-5.32-4.306-1.931.643-2.68 3.614-1.674 6.636m-13.425 98.441c.291 2.997 4.327 5.057 9.015 4.601 4.687-.456 8.251-3.255 7.96-6.252-.292-2.996-4.328-5.056-9.016-4.6s-8.251 3.255-7.959 6.251m16.269 47.186c2.123 1.733 4.76 2.015 5.891.63 1.13-1.384.327-3.912-1.795-5.645-2.123-1.733-4.76-2.015-5.891-.63-1.13 1.385-.327 3.912 1.795 5.645m-74.703-23.098c.767 1.823 3.245 2.519 5.535 1.554 2.29-.964 3.524-3.223 2.756-5.045-.767-1.823-3.245-2.519-5.535-1.554-2.29.964-3.524 3.223-2.756 5.045m106.777 24.317c1.652.394 3.545-1.602 4.227-4.459s-.105-5.492-1.758-5.887c-1.652-.394-3.544 1.602-4.226 4.459s.104 5.493 1.757 5.887m-26.626 26.165c.725 3.739 3.247 6.394 5.633 5.931 2.385-.462 3.732-3.868 3.007-7.606s-3.247-6.394-5.633-5.931c-2.385.463-3.732 3.868-3.007 7.606M45.143 129.852c.119 3.856 2.254 6.919 4.768 6.842 2.514-.078 4.456-3.268 4.336-7.124s-2.254-6.92-4.769-6.842c-2.514.078-4.455 3.268-4.336 7.124"/><path d="M40.216 120.223c.78 3.941 3.453 6.732 5.97 6.234s3.927-4.097 3.147-8.038-3.453-6.732-5.971-6.234-3.926 4.097-3.146 8.038m19.438 59.025c.115 3.71 2.168 6.656 4.585 6.581 2.418-.075 4.284-3.143 4.17-6.852-.116-3.709-2.168-6.656-4.586-6.581-2.417.075-4.284 3.143-4.17 6.852m-6.715-10.372c.723 3.73 3.24 6.38 5.622 5.918 2.383-.462 3.727-3.86 3.004-7.591-.724-3.731-3.241-6.381-5.623-5.919s-3.727 3.861-3.003 7.592m116.243 114.408c2.761 2.928 6.549 3.841 8.461 2.039s1.223-5.638-1.538-8.566c-2.76-2.929-6.549-3.841-8.46-2.039s-1.224 5.638 1.537 8.566M23.159 140.616c-.31 2.972.832 5.526 2.553 5.706 1.72.18 3.367-2.083 3.677-5.054s-.832-5.526-2.553-5.706c-1.72-.18-3.367 2.083-3.677 5.054m-2.506-12.35c-.314 3.01.844 5.598 2.588 5.78 1.743.182 3.412-2.11 3.726-5.12s-.844-5.597-2.587-5.78-3.412 2.11-3.727 5.12m-6.915 26.039c.78 2.343 2.624 3.838 4.118 3.34s2.073-2.8 1.293-5.142-2.625-3.838-4.119-3.34c-1.494.497-2.073 2.8-1.292 5.142m42.964 61.318c.43 1.563 2.844 2.262 5.392 1.562 2.549-.701 4.266-2.537 3.836-4.1-.43-1.564-2.844-2.263-5.392-1.562s-4.266 2.536-3.836 4.1m-22.03-46.545c1.678.4 3.6-1.624 4.292-4.523s-.108-5.573-1.787-5.973c-1.679-.401-3.6 1.624-4.292 4.522s.108 5.573 1.787 5.974M17.005 215.47c1.862 3.339 4.98 5.149 6.964 4.043s2.082-4.71.22-8.049c-1.862-3.34-4.98-5.15-6.964-4.044s-2.083 4.71-.22 8.05m23.478-27.656c3.532 5.747 8.982 8.815 12.173 6.854 3.192-1.962 2.916-8.21-.616-13.957s-8.982-8.815-12.173-6.854c-3.192 1.962-2.916 8.21.616 13.957m25.401 11.138c.462 1.679 2.715 2.524 5.032 1.887s3.821-2.515 3.36-4.194-2.715-2.524-5.032-1.887c-2.317.638-3.822 2.515-3.36 4.194M30.725 222.97c-.075 2.247 2.714 4.163 6.23 4.28s6.427-1.61 6.501-3.857-2.714-4.164-6.23-4.28-6.427 1.609-6.501 3.857m14.787 1.318c.745 2.709 4.11 4.145 7.518 3.209 3.406-.937 5.564-3.893 4.82-6.602-.746-2.709-4.111-4.145-7.518-3.209-3.407.937-5.565 3.893-4.82 6.602m174.799-95.937c-.073 2.181 2.634 4.041 6.045 4.155s6.236-1.563 6.308-3.744-2.634-4.042-6.045-4.156-6.236 1.563-6.308 3.745m14.504 1.337c.759 2.761 4.188 4.226 7.658 3.271 3.47-.954 5.668-3.966 4.909-6.727s-4.188-4.226-7.659-3.272-5.667 3.966-4.908 6.728M195.05 273.973c-.069 2.085 2.515 3.863 5.771 3.971 3.257.109 5.953-1.494 6.023-3.578.069-2.085-2.515-3.863-5.772-3.971-3.256-.108-5.952 1.494-6.022 3.578m12.686.994c.739 2.687 4.078 4.111 7.459 3.181s5.522-3.861 4.783-6.547c-.738-2.687-4.078-4.111-7.458-3.181s-5.523 3.861-4.784 6.547M25.614 186.875c1.892 2.007 4.488 2.634 5.797 1.4 1.31-1.235.837-3.863-1.056-5.871-1.893-2.007-4.489-2.634-5.798-1.399s-.836 3.862 1.057 5.87m52.675 11.055c1.585.498 3.528-1.193 4.34-3.777s.185-5.083-1.4-5.581-3.528 1.193-4.34 3.777-.185 5.083 1.4 5.581m15.68-22.383c.476 1.731 3.149 2.506 5.97 1.73s4.721-2.808 4.245-4.539-3.148-2.506-5.97-1.73c-2.82.775-4.721 2.808-4.245 4.539m-51.172-17.81c1.052 1.886 2.811 2.909 3.93 2.285s1.173-2.658.122-4.544-2.812-2.909-3.93-2.285c-1.12.623-1.173 2.658-.122 4.544m-6.238-10.805c.71 3.659 3.178 6.257 5.515 5.804s3.655-3.786 2.946-7.445c-.71-3.658-3.18-6.257-5.516-5.803s-3.655 3.786-2.945 7.444"/><path d="M67.737 180.548c-.066 1.977 2.386 3.662 5.476 3.765s5.65-1.416 5.715-3.393c.066-1.976-2.386-3.661-5.477-3.764-3.09-.103-5.648 1.416-5.714 3.392m32.872 8.874c.494 1.799 2.728 2.753 4.99 2.131s3.693-2.584 3.198-4.382c-.494-1.799-2.728-2.753-4.989-2.131-2.262.622-3.694 2.584-3.199 4.382"/></g><defs><clipPath id="a"><path fill="#fff" d="M0 0h437v173H0z"/></clipPath></defs></svg>