<svg xmlns="http://www.w3.org/2000/svg" width="47" height="60" fill="none"><path fill="#fff" d="M0 30.861V29.14L18.547 0l4.32 2.097q1.043.525 1.564 1.349t.521 1.797q0 1.274-.744 2.472l-11.843 19.55q-1.043 1.799-2.086 2.773 1.117 1.049 2.085 2.696l11.844 19.55q.372.6.521 1.274.224.675.224 1.273 0 2.098-2.086 3.072L18.547 60zm22.048 0V29.14L40.594 0l4.32 2.097q1.044.525 1.565 1.349T47 5.243q0 1.274-.745 2.472l-11.843 19.55q-1.042 1.799-2.085 2.773 1.117 1.049 2.085 2.696l11.843 19.55q.372.6.521 1.274.224.675.224 1.273 0 2.098-2.086 3.072L40.594 60z"/></svg>